<?xml version="1.0" encoding="UTF-8"?>
<svg width="282px" height="234px" viewBox="0 0 282 234" version="1.1" xmlns="http://www.w3.org/2000/svg" xmlns:xlink="http://www.w3.org/1999/xlink">
    <title>asset / lev</title>
    <g id="asset-/-lev" stroke="none" stroke-width="1" fill="none" fill-rule="evenodd" transform="translate(1, 1)">
        <g id="Group" transform="translate(-0.3039, -0.3162)" fill="#174F9B">
            <path d="M219.961775,164.300051 C219.961775,164.300051 262.645367,173.416238 280.378834,181.710278 L280.81251,187.815888 L219.961775,164.300051 Z" id="Fill-3"></path>
            <path d="M110.286993,218.281066 C107.885292,219.256496 101.968472,217.021335 96.6151588,213.282755 C91.2278582,209.520214 86.9373224,203.241609 87.4160312,202.222336 C87.8933805,201.199155 94.7693175,204.34381 100.855733,205.708902 C107.888691,207.286583 113.527496,207.364073 113.527496,207.364073 C114.942721,210.977411 112.684955,217.306996 110.286993,218.281066 Z M112.309737,169.264035 C114.690366,160.351941 119.6462,153.578653 119.6462,153.578653 C119.6462,153.578653 122.036855,163.089431 121.085046,171.266895 C120.135105,179.450136 115.719667,188.885292 114.39077,194.557398 C113.071729,200.1583 113.33428,204.788362 113.33428,204.788362 C113.33428,204.788362 111.355039,204.44985 110.962827,203.211361 C110.240771,200.929467 109.929109,178.172222 112.309737,169.264035 Z M66.1723731,102.771183 C64.0806349,103.424244 55.2133917,91.8171434 55.5034719,89.6999177 C55.7004273,88.2770481 59.8917207,87.5332407 62.231395,88.1079624 C64.672181,88.7047757 67.3996485,91.2665526 68.0253516,92.9944562 C68.7384017,94.9607793 68.2653008,102.117441 66.1723731,102.771183 Z M48.8919547,95.6986391 C46.8486482,95.90681 42.1196784,89.5772243 42.8668856,88.143139 C43.6813872,86.5780335 51.4739573,87.3502202 52.1117259,88.8108154 C52.7476251,90.275659 50.9320324,95.488259 48.8919547,95.6986391 Z M35.5477563,105.62185 C34.0992246,113.642803 35.2518983,122.031157 33.8660729,122.004202 C32.4821168,121.979156 28.3283792,114.907633 26.1829414,106.367526 C24.139465,98.2305073 24.4603035,86.9986237 25.9280379,85.8136638 C28.5515047,83.6969479 38.2261124,86.4354577 39.1243923,89.5010932 C39.7708276,91.7010775 37.0612033,97.2353653 35.5477563,105.62185 Z M18.0290881,95.5599717 C17.0237487,95.7135934 15.1580249,92.779148 14.5221257,90.2688615 C13.7851147,87.3593967 14.1343325,83.0812717 15.2013585,82.5038311 C16.9702189,81.5436958 20.9134062,83.0804221 21.7178817,85.0096992 C22.5638214,87.0317612 19.0334079,95.4068599 18.0290881,95.5599717 Z M278.359998,218.255576 C266.589064,210.815972 254.836823,204.363013 240.528239,197.739099 C213.073263,185.039483 191.388792,178.303752 186.631952,178.769035 C179.519465,179.458293 161.495918,188.072151 159.32346,193.016423 C157.603711,196.923579 158.632162,216.109461 155.476966,219.901571 C151.254745,224.968536 139.151416,229.032712 134.433153,229.042908 C130.774607,229.047667 128.369848,226.897813 128.369848,226.897813 C128.369848,226.897813 122.211719,229.700389 119.526226,228.028394 C116.84651,226.356399 114.816628,221.804678 117.568057,213.253526 C120.322884,204.706962 126.552386,189.606498 127.865989,179.689575 C129.178572,169.769763 128.60113,154.120068 125.498955,147.127224 C122.39525,140.131831 108.626552,120.38907 101.294507,112.666864 C93.9605937,104.93684 70.5900208,87.3593967 64.4188069,85.4403157 C58.4470976,83.58615 46.5701237,85.6840031 39.5786303,84.6305732 C32.5881566,83.5793525 15.0327824,78.8991603 11.6242127,74.1866803 C8.7590973,70.2265046 9.36066957,61.6988038 11.6084087,57.4815158 C13.855468,53.2694957 19.5257115,48.8521936 24.6987232,45.9388202 C29.9787944,42.9657995 33.7027647,41.3529422 34.288533,40.1015375 C34.829948,38.9396888 33.852648,36.2926043 32.5096464,36.4973765 C31.1059777,36.7103057 28.6386817,40.924365 25.2233147,43.4822334 C21.8118561,46.0433305 17.7187855,48.564153 16.1213903,48.5757086 C14.3083466,48.5916825 12.8550567,45.0419009 9.91941805,45.5394719 C8.13662294,45.8416171 10.0466999,49.2717642 10.3024531,52.5747996 C10.5553173,55.8832728 9.46908853,58.354814 9.46908853,58.354814 C9.46908853,58.354814 8.56537064,53.7723347 6.92753065,51.344127 C5.2922397,48.9167691 2.58975275,47.4143697 2.73861639,45.7833293 C2.89427747,44.1213606 8.78849617,39.8140067 12.4257992,40.4759053 C15.781349,41.0871631 17.3377898,45.6811981 17.3377898,45.6811981 C17.3377898,45.6811981 17.5525885,41.0722088 14.9156967,39.005114 C12.278465,36.9429473 7.11344027,39.1001079 7.11344027,39.1001079 C7.11344027,39.1001079 9.23542698,36.0946295 13.1993464,34.5320731 C19.1460752,32.186624 28.1293845,33.2728514 28.1293845,33.2728514 C28.1293845,33.2728514 39.2380793,26.4118775 47.1818921,27.4948761 C55.1291036,28.577195 62.4983639,35.5340125 62.4983639,35.5340125 C62.4983639,35.5340125 55.1952086,25.9263719 46.503169,25.0972569 C37.5689711,24.2475796 26.2069023,30.5713875 26.2069023,30.5713875 C26.2069023,30.5713875 17.4490976,30.7246693 11.6034805,33.347453 C5.75939286,35.9727858 0.556982266,43.143552 0.0281424624,45.852663 C-0.50035747,48.5651726 6.57491414,55.0599356 7.80049019,59.6497222 C8.47581454,62.1766623 5.85098818,68.1628085 7.92998117,73.1962965 C8.65356725,74.9491807 10.9426007,76.6390188 10.9426007,76.6390188 C10.9426007,76.6390188 10.0908831,78.4580079 10.5130033,80.3206703 C10.933934,82.1795942 12.167667,83.4947247 12.167667,83.4947247 C12.1680068,83.4947247 11.7547233,87.1772259 12.8482593,90.9249823 C13.8772198,94.4553913 16.5934715,98.1283761 18.3132205,98.0080618 C20.0329695,97.8875776 22.3406959,91.7622543 22.3406959,91.7622543 C22.3412057,91.7622543 22.3230226,99.9641888 24.6115462,108.437 C26.8076249,116.578268 31.6030396,125.28661 34.5786131,124.461913 C37.5502782,123.633818 36.0901909,115.09898 37.2819498,107.618931 C38.4856041,100.038451 41.5825118,91.7097442 41.5825118,91.7097442 C41.5825118,91.7097442 46.0740815,98.8913863 49.4503633,97.7930935 C51.9368621,96.9853903 53.7939191,92.0627002 53.7939191,92.0627002 C53.7939191,92.0627002 62.2839051,106.106506 66.9256979,104.671911 C69.6492569,103.833789 70.1169199,96.4665774 70.1169199,96.4665774 C70.1169199,96.4665774 95.4128639,111.716925 101.188977,117.926536 C106.96611,124.135297 117.579103,149.24275 117.579103,149.24275 C117.579103,149.24275 112.762106,156.780577 110.391504,163.43253 C108.018182,170.077177 108.919011,204.498961 108.919011,204.498961 C108.919011,204.498961 104.702567,204.636269 99.3455152,203.294119 C94.1859284,202.004139 87.115415,198.653352 85.7074979,200.200614 C84.2859861,201.766739 87.1988534,208.475961 94.5319174,214.121047 C101.86821,219.77089 108.984096,221.341264 108.984096,221.341264 C108.984946,221.341264 109.043744,223.582203 110.498563,224.819673 C111.953722,226.054764 114.117173,225.771651 114.117173,225.771651 C114.117173,225.771651 114.672013,228.759626 117.002511,230.263555 C120.125929,232.278989 127.791897,230.504863 127.791897,230.504863 C127.791897,230.504863 130.427769,232.572298 134.767926,232.385879 C139.497235,232.177708 154.525666,227.861177 159.047485,221.940116 C163.005626,216.763203 159.756966,198.900098 162.12502,195.023701 C164.494603,191.140676 177.319987,184.854423 185.176113,184.645913 C193.03088,184.439271 216.029464,190.57564 240.009426,201.519483 C253.792908,207.809644 265.508103,215.531851 277.393234,223.683314 L278.359998,218.255576 Z" id="Fill-4"></path>
            <path d="M138.390275,148.062209 C138.390275,148.062209 149.49761,160.871773 150.81784,166.858429 C152.135351,172.840667 147.17136,182.127979 146.196439,187.410423 C145.221009,192.698134 146.890627,199.302675 148.793226,199.736351 C151.388654,200.326366 157.623933,193.13113 157.623933,193.13113 C157.623933,193.13113 151.749597,196.626362 150.107849,195.855705 C148.470519,195.087766 148.024437,189.638276 149.202771,186.318417 C150.378556,183.003656 155.101748,172.106036 153.740903,166.478284 C152.379549,160.846623 138.389425,148.063568 138.390275,148.062209" id="Fill-5"></path>
            <path d="M128.648712,146.997563 C128.648712,146.997563 134.235687,163.344844 134.502996,169.708077 C134.772684,176.075728 130.153153,192.8922 130.153153,192.8922 C130.153153,192.8922 138.018455,178.46655 137.647996,169.931202 C137.319,162.503663 128.648712,146.997563 128.648712,146.997563" id="Fill-6"></path>
            <path d="M120.613814,133.754494 C120.613814,133.754494 111.978873,120.725713 104.200747,111.474597 C96.4210922,102.218552 83.9444154,91.2665526 78.128707,87.4210833 C72.3121488,83.5798623 67.7396898,80.8145028 68.9690044,79.5177253 C70.1998485,78.2190786 76.9702555,81.5071597 81.451629,84.8569273 C86.3534234,88.5227748 99.3200248,100.826441 106.125609,109.752471 C112.598798,118.237688 120.613814,133.754494 120.613814,133.754494" id="Fill-7"></path>
            <path d="M126.741184,143.61024 C126.741184,143.61024 121.157778,137.130771 122.755513,136.378807 C124.353928,135.629221 126.741184,143.611599 126.741184,143.61024" id="Fill-8"></path>
            <path d="M81.0589077,36.7325672 C74.6791828,38.9213358 71.9527349,44.9460573 72.0031798,46.6088757 C72.0438204,47.9817842 76.2694408,58.2324605 82.4092165,64.0639654 C88.8992297,70.2197072 100.132657,75.8726099 105.67273,82.7060543 C111.212973,89.5420476 116.313252,100.787526 119.556984,108.795394 C122.800886,116.802243 124.382307,123.036495 124.382307,123.036495 C124.383327,123.036495 123.723807,125.647383 124.961278,127.937943 C126.494608,130.782323 134.693664,137.262301 140.890878,140.284433 C147.090981,143.310134 156.152291,144.510048 156.152291,144.510048 C156.15331,144.510048 147.427114,141.601943 141.613954,137.758513 C135.795867,133.911514 127.779831,125.372767 126.498856,122.778873 C125.218051,120.1809 121.293047,109.358051 118.103184,101.497516 C115.149872,94.224619 109.606911,81.6198269 107.462832,78.9968732 C105.320113,76.3688214 87.738739,65.9084448 82.7478983,61.1728536 C77.296362,55.9993388 73.8594131,47.9794051 73.8594131,47.9794051 C73.8594131,47.9794051 75.3161017,47.442749 75.9384061,46.205279 C76.5955473,44.9008545 76.9394971,42.3842804 77.964889,40.5384415 C79.0844252,38.5211378 81.0589077,36.7325672 81.0589077,36.7325672" id="Fill-9"></path>
            <path d="M125.629975,20.4459536 C125.629975,20.4459536 131.893634,26.6074732 131.605933,31.3695743 C131.358846,35.4949273 124.177025,39.3490633 123.014665,39.2671544 C121.852305,39.1862652 119.561912,37.2970928 119.942908,36.3529314 C120.542101,34.8773819 127.811609,33.7541086 128.473509,30.3657656 C129.132859,26.9803116 125.628955,20.4459536 125.629975,20.4459536" id="Fill-10"></path>
            <path d="M66.0224898,52.8874808 C66.0224898,52.8874808 61.8629745,45.5843349 57.2765807,41.9604614 C52.6893372,38.3379474 42.4072096,38.791845 41.8600167,37.9849915 C41.3141833,37.1752491 43.5811252,35.0952391 45.1096965,34.7925841 C46.6895884,34.4785434 54.3545368,35.9651387 58.4895815,39.7570783 C63.0161579,43.9065622 66.0224898,52.8874808 66.0224898,52.8874808" id="Fill-11"></path>
            <path d="M87.7796935,28.8854579 C87.7796935,28.8854579 92.1636939,23.2682416 97.1281946,22.7254678 C99.6658439,22.4469436 100.70534,23.5683476 100.70534,23.5683476 C100.70534,23.5674979 105.287486,22.108772 108.470551,22.7672719 C112.007252,23.4976545 114.259239,26.5838522 114.259239,26.5838522 C114.259239,26.5838522 108.792749,25.038969 102.916373,26.5423879 C97.0420372,28.0449572 93.0689412,33.2704723 90.8077772,34.4569616 C88.4806781,35.6804968 82.8104346,36.3529314 82.0836198,34.3509219 C81.5185837,32.7931236 84.8851792,31.3199532 84.8851792,31.3199532 L87.7796935,28.8854579 Z" id="Fill-12"></path>
            <path d="M88.013355,26.4084788 C88.013355,26.4084788 89.273598,21.5457759 92.3174857,19.1848627 C95.3618832,16.8202109 100.752073,16.7517269 101.457306,18.0085695 C102.165937,19.2620134 97.5936484,19.1564834 94.165706,21.155944 C90.736914,23.156594 88.013355,26.4084788 88.013355,26.4084788" id="Fill-13"></path>
            <path d="M32.7026933,47.7872081 C32.9591262,48.4958389 32.5934246,49.2751629 31.8863223,49.5309158 C31.1821089,49.7871784 30.3997251,49.425046 30.1439719,48.7164152 C29.8885586,48.0101634 30.2537503,47.2279506 30.9589834,46.9721977 C31.665236,46.7167847 32.4469401,47.081976 32.7026933,47.7872081" id="Fill-14"></path>
            <path d="M24.2121974,55.9641621 C24.4361726,56.5806879 24.1187328,57.2575408 23.5030559,57.4815158 C22.8904378,57.7031116 22.2122245,57.3851624 21.9880794,56.7710156 C21.7666532,56.1568689 22.0830734,55.4795062 22.6958614,55.2565509 C23.3113684,55.0339355 23.9911111,55.3523945 24.2121974,55.9641621" id="Fill-15"></path>
            <path d="M19.8807071,63.4532174 C20.1028131,64.0660046 19.7853732,64.7460863 19.1696963,64.968192 C18.5555488,65.1913172 17.8763159,64.8728582 17.6547198,64.2616004 C17.4307446,63.6449046 17.7481844,62.9677118 18.3633515,62.7442467 C18.9788585,62.5216313 19.6567319,62.8375413 19.8807071,63.4532174" id="Fill-16"></path>
            <path d="M56.8044994,49.6836877 C57.0266053,50.2997038 56.7091655,50.9799554 56.095018,51.202061 C55.4827397,51.4250163 54.8024873,51.1075769 54.5790218,50.4919007 C54.3560662,49.8753749 54.6743558,49.1976724 55.2871438,48.9750569 C55.9028207,48.7529513 56.5805242,49.069541 56.8044994,49.6836877" id="Fill-17"></path>
            <path d="M59.36526,67.511106 C59.5868561,68.1257626 59.2738346,68.8044847 58.6576479,69.0265904 C58.0424807,69.2495457 57.3632479,68.9321063 57.1402923,68.3166001 C56.9181863,67.7038128 57.2356262,67.0256005 57.8502835,66.802985 C58.4664702,66.5808794 59.1423044,66.8993384 59.36526,67.511106" id="Fill-18"></path>
            <path d="M47.5142863,45.9422189 C47.7700394,46.6474511 47.4073967,47.4288143 46.7011441,47.6835475 C45.9926823,47.9408298 45.214207,47.5747888 44.9574342,46.8680273 C44.701681,46.1643246 45.0653433,45.3819418 45.7719358,45.1248294 C46.4792081,44.8709459 47.2585331,45.2361371 47.5142863,45.9422189" id="Fill-19"></path>
            <path d="M30.5417913,55.3673488 C30.7985641,56.0768293 30.4359214,56.8547938 29.72627,57.1110565 C29.021037,57.3688486 28.2406924,57.0041671 27.9825601,56.2965559 C27.7276566,55.5903041 28.093868,54.8075814 28.7980814,54.5536979 C29.5067131,54.2960757 30.2870577,54.6621167 30.5417913,55.3673488" id="Fill-20"></path>
            <path d="M27.4936552,63.2720662 C27.7494084,63.9788278 27.3842166,64.7610406 26.6781339,65.0178131 C25.9718813,65.2727163 25.1910269,64.9065054 24.9342541,64.2012733 C24.6774813,63.4936621 25.0445423,62.7148479 25.7497754,62.4575656 C26.456028,62.2018128 27.2363726,62.564455 27.4936552,63.2720662" id="Fill-21"></path>
            <path d="M25.111497,70.933606 C25.3664005,71.6393479 25.0003591,72.4225804 24.2941064,72.6774836 C23.589893,72.9332364 22.8075092,72.568555 22.5522658,71.862813 C22.2939636,71.1543522 22.6615344,70.3763877 23.3667675,70.1180858 C24.0730201,69.8623329 24.8543843,70.2265046 25.111497,70.933606" id="Fill-22"></path>
            <path d="M53.1921768,71.1373586 C53.4470804,71.8417411 53.0829082,72.6249735 52.3766556,72.8797068 C51.6704029,73.1351198 50.8892087,72.7709481 50.6329457,72.0641866 C50.3761729,71.3560655 50.7432339,70.5777612 51.4484669,70.3209887 C52.1537,70.064726 52.9348942,70.4297474 53.1921768,71.1373586" id="Fill-23"></path>
            <path d="M58.2197236,58.7990253 C58.4764964,59.5076561 58.1128341,60.2864703 57.4065815,60.5422232 C56.6989693,60.800525 55.9201542,60.4353338 55.6628715,59.7277225 C55.408138,59.0214708 55.7707807,58.2392579 56.4783928,57.9843548 C57.1846455,57.7280921 57.9639705,58.0932834 58.2197236,58.7990253" id="Fill-24"></path>
            <path d="M51.0120721,52.2891381 C51.268675,52.9958996 50.904163,53.7757334 50.1984202,54.0306366 C49.4902982,54.2863894 48.7118229,53.9235772 48.4560697,53.2151163 C48.1992969,52.5088646 48.5629593,51.7295406 49.271591,51.4712387 C49.976824,51.2154859 50.756149,51.5830563 51.0120721,52.2891381" id="Fill-25"></path>
            <path d="M40.8055659,46.3612798 C41.0956461,47.1604862 40.6832122,48.0400721 39.8836649,48.3299819 C39.0868365,48.6200618 38.203341,48.2081382 37.9144503,47.4085919 C37.6253898,46.6104051 38.0381635,45.7284401 38.8358415,45.4388701 C39.6345392,45.1498099 40.5159955,45.5612237 40.8055659,46.3612798" id="Fill-26"></path>
            <path d="M37.5130623,54.982445 C37.8039922,55.780122 37.3912184,56.6615772 36.5925208,56.9506374 C35.7943329,57.2407172 34.9084583,56.8287937 34.6195676,56.0300971 C34.3305071,55.2314005 34.7456599,54.3489257 35.5438477,54.0600354 C36.3425454,53.7704654 37.2240017,54.1818791 37.5130623,54.982445" id="Fill-27"></path>
            <path d="M44.4160191,54.053238 C44.7050797,54.8527843 44.2941752,55.7333898 43.4949678,56.0234696 C42.6952505,56.3123599 41.8114151,55.9006063 41.5223545,55.1019096 C41.2324443,54.3013437 41.6465775,53.4178493 42.445785,53.1287891 C43.243463,52.8407485 44.1259389,53.2506328 44.4160191,54.053238" id="Fill-28"></path>
            <path d="M51.1916941,61.285011 C51.4816044,62.0871063 51.0706999,62.9677118 50.2711526,63.2571119 C49.4719452,63.5461721 48.5904888,63.1347584 48.3004087,62.3347023 C48.011518,61.5375351 48.4227623,60.6535309 49.22146,60.3641308 C50.0211773,60.074051 50.9036532,60.4888634 51.1916941,61.285011" id="Fill-29"></path>
            <path d="M43.6071253,63.2812427 C43.8961859,64.0799394 43.4852815,64.9642834 42.6862439,65.2538534 C41.888396,65.5434235 41.0050704,65.1296306 40.7160098,64.330934 C40.4269492,63.5317276 40.839723,62.6497626 41.637401,62.3612122 C42.4366084,62.0702827 43.3172151,62.4830559 43.6071253,63.2812427" id="Fill-30"></path>
            <path d="M35.387337,63.8693893 C35.6772472,64.6709749 35.2663428,65.5529398 34.4673053,65.8425098 C33.6696272,66.13157 32.7846023,65.7211759 32.494692,64.918061 C32.2046118,64.120384 32.618915,63.2379092 33.4181225,62.9479993 C34.2176698,62.6594489 35.0982764,63.0706927 35.387337,63.8693893" id="Fill-31"></path>
            <path d="M34.0390674,72.2910504 C34.328128,73.0892372 33.9128052,73.9732414 33.1146173,74.2623016 C32.3159197,74.550852 31.4344634,74.1404579 31.1454028,73.3407417 C30.8544729,72.5430647 31.2672467,71.6605899 32.0659443,71.3715297 C32.8641322,71.0819597 33.7481375,71.4925237 34.0390674,72.2910504" id="Fill-32"></path>
            <path d="M43.8552314,72.6341501 C44.144292,73.4302976 43.7281195,74.3132822 42.9312912,74.6042117 C42.1322537,74.8932719 41.2501176,74.4794791 40.9602073,73.6828217 C40.670637,72.8831055 41.0835806,72.0021601 41.8817685,71.7120803 C42.6804661,71.4221704 43.5643015,71.8349436 43.8552314,72.6341501" id="Fill-33"></path>
            <path d="M47.7258562,26.0385293 C47.7258562,26.0385293 54.2172288,25.1946299 58.3228746,23.3285687 C62.4288602,21.463867 71.381921,14.5632982 77.9062612,12.0749334 C84.4290719,9.58011101 89.6078614,8.58496902 89.6078614,8.58496902 C89.6078614,8.58496902 102.341311,0.361622638 105.56686,0 C107.201641,0.118445009 115.035676,0.439792945 120.708298,1.67097528 C126.948336,3.02655037 133.065,4.01744398 133.569879,4.24226858 C133.802011,5.44609131 113.839159,0.426707916 101.531568,5.01785398 C90.9975953,8.94472236 88.9709425,18.6342718 86.9171,18.8732011 C84.8668262,19.1150192 84.8601987,13.2021152 84.8601987,13.2021152 C84.8601987,13.2021152 80.5633753,13.5006918 75.4148343,15.6202967 C70.2673129,17.7368427 62.3755004,23.748989 58.6768506,25.341624 C54.9725929,26.9340891 52.3029035,27.9042506 52.3029035,27.9042506 L47.7258562,26.0385293 Z" id="Fill-34"></path>
            <path d="M205.824487,37.6712906 C205.187738,38.1149921 204.621342,38.5673603 204.208399,38.965689 C200.951581,42.1135732 200.966536,46.6865362 200.966536,46.6865362 C200.966536,46.6865362 207.740342,48.0082941 212.214918,50.2852592 C216.692893,52.563244 221.320581,56.2984252 221.630373,59.5822578 C221.943055,62.8727179 216.017908,68.8955701 213.414833,67.4725307 C211.059355,66.1898579 217.930364,62.5668341 217.73001,59.2401777 C217.536283,55.9940708 213.282284,52.3006937 208.707106,50.6774703 C203.796644,48.9351221 196.951466,49.1489009 196.951466,49.1489009 C196.951466,49.1489009 196.503515,41.2302488 201.865496,36.6688414 C202.218962,36.3668661 203.117921,35.6235685 203.117921,35.6235685 L205.824487,37.6712906 Z" id="Fill-35"></path>
            <path d="M194.564209,146.577993 C194.564209,146.577993 187.558781,144.968194 183.313958,141.592766 C179.069985,138.226685 175.285687,130.913343 175.285687,130.913343 C175.285687,130.913343 199.085518,117.749803 201.487729,110.83343 C203.890959,103.923345 202.213184,91.312775 199.58122,85.0948369 C196.949087,78.8707811 190.634447,70.8398016 190.634447,70.8398016 C190.634447,70.8398016 202.154386,77.612579 210.101088,78.0017312 C218.084496,78.3963213 234.479379,74.7228267 239.99736,70.8398016 L243.325551,75.1505542 C237.654287,78.5956556 218.137006,81.7629125 211.424377,81.3028972 C204.709879,80.8418624 196.877884,76.2559843 196.877884,76.2559843 C196.877884,76.2559843 201.181335,81.866913 202.894286,87.2924421 C204.607238,92.710664 207.569386,107.664304 204.81354,113.406253 C201.155334,121.025819 177.965573,131.703883 177.965573,131.703883 C177.965573,131.703883 181.014219,136.638978 184.994112,139.979569 C188.974006,143.32118 194.564209,146.579012 194.564209,146.577993" id="Fill-36"></path>
        </g>
    </g>
</svg>