<?xml version="1.0" encoding="UTF-8"?>
<svg width="24px" height="24px" viewBox="0 0 24 24" version="1.1" xmlns="http://www.w3.org/2000/svg" xmlns:xlink="http://www.w3.org/1999/xlink">
    <title>ico 24 / home@3x</title>
    <g id="✅-ToCode" stroke="none" stroke-width="1" fill="none" fill-rule="evenodd">
        <g id="Homepage-V3" transform="translate(-290, -30)">
            <g id="1479877203-facebook" transform="translate(292, 32)">
                <rect id="Rectangle" x="0" y="0" width="20" height="20"></rect>
                <path d="M10.6826563,20 L1.10390625,20 C0.4940625,20 0,19.505625 0,18.8960937 L0,1.10390625 C0,0.4940625 0.4940625,0 1.10390625,0 L18.89625,0 C19.5057813,0 20,0.4940625 20,1.10390625 L20,18.8960937 C20,19.5057813 19.5057813,20 18.89625,20 L13.7996875,20 L13.7996875,12.2548437 L16.399375,12.2548437 L16.7885938,9.23640625 L13.7996875,9.23640625 L13.7996875,7.309375 C13.7996875,6.43546875 14.0423437,5.84 15.2954687,5.84 L16.89375,5.839375 L16.89375,3.1396875 C16.6173437,3.10296875 15.6685937,3.02078125 14.5646875,3.02078125 C12.2601562,3.02078125 10.6825,4.4275 10.6825,7.010625 L10.6825,9.2365625 L8.07625,9.2365625 L8.07625,12.255 L10.6826563,12.255 L10.6826563,20 Z" id="Facebook" fill="#174f9b"></path>
            </g>
        </g>
    </g>
</svg>