<?xml version="1.0" encoding="UTF-8"?>
<svg width="118px" height="118px" viewBox="0 0 118 118" version="1.1" xmlns="http://www.w3.org/2000/svg" xmlns:xlink="http://www.w3.org/1999/xlink">
    <title>asset / logo</title>
    <defs>
        <filter x="-1.7%" y="-0.9%" width="103.4%" height="103.4%" filterUnits="objectBoundingBox" id="filter-1">
            <feOffset dx="0" dy="1" in="SourceAlpha" result="shadowOffsetOuter1"></feOffset>
            <feGaussianBlur stdDeviation="0.5" in="shadowOffsetOuter1" result="shadowBlurOuter1"></feGaussianBlur>
            <feColorMatrix values="0 0 0 0 0   0 0 0 0 0   0 0 0 0 0  0 0 0 0.300344187 0" type="matrix" in="shadowBlurOuter1" result="shadowMatrixOuter1"></feColorMatrix>
            <feMerge>
                <feMergeNode in="shadowMatrixOuter1"></feMergeNode>
                <feMergeNode in="SourceGraphic"></feMergeNode>
            </feMerge>
        </filter>
        <linearGradient x1="103.066653%" y1="0%" x2="-8.50014503e-15%" y2="100%" id="linearGradient-2">
            <stop stop-color="#EEEEEE" offset="0%"></stop>
            <stop stop-color="#000000" stop-opacity="0.348666958" offset="19.5250715%"></stop>
            <stop stop-color="#FFFFFF" stop-opacity="0.440614073" offset="36.1635368%"></stop>
            <stop stop-color="#323232" stop-opacity="0.429059222" offset="49.9890734%"></stop>
            <stop stop-color="#E1E1E1" stop-opacity="0.34060861" offset="65.0486233%"></stop>
            <stop stop-color="#000000" stop-opacity="0.44960118" offset="82.7345864%"></stop>
            <stop stop-color="#D8D8D8" offset="100%"></stop>
        </linearGradient>
    </defs>
    <g id="✅-ToCode" stroke="none" stroke-width="1" fill="none" fill-rule="evenodd">
        <g id="Profil" transform="translate(-902, -18)">
            <g id="asset-/-logo" filter="url(#filter-1)" transform="translate(903, 18)">
                <path d="M116,57.9999002 C116,90.0321337 90.0324495,116 58.000025,116 C25.9674507,116 0,90.0321337 0,57.9999002 C0,25.9674171 25.9674507,0 58.000025,0 C90.0325493,0 116,25.9674171 116,57.9999002" id="Fill-1" fill="#FDD715"></path>
                <path d="M113.212647,57.9999002 C113.212647,88.492312 88.492576,113.212301 58.000025,113.212301 C27.5071246,113.212301 2.78780197,88.492312 2.78780197,57.9999002 C2.78780197,27.5073885 27.5071246,2.78809781 58.000025,2.78809781 C88.492576,2.78809781 113.212647,27.5073885 113.212647,57.9999002" id="Fill-2" fill="#174F9B"></path>
                <path d="M95.342558,51.0939833 C95.342558,51.0939833 107.877486,53.7711421 113.085289,56.2068601 L113.212647,57.9999002 L95.342558,51.0939833 Z" id="Fill-3" fill="#FEFEFE"></path>
                <path d="M63.1342677,66.946636 C62.4289581,67.2330912 60.6913603,66.5766895 59.1192479,65.4787774 C57.5371546,64.3738287 56.2771492,62.5299852 56.417732,62.2306545 C56.5579156,61.9301759 58.5771781,62.8536697 60.3645813,63.2545573 C62.4299562,63.7178762 64.0859091,63.7406329 64.0859091,63.7406329 C64.5015193,64.8017649 63.8384794,66.66058 63.1342677,66.946636 Z M63.7282888,52.551761 C64.4274102,49.9345383 65.8827943,47.945421 65.8827943,47.945421 C65.8827943,47.945421 66.5848601,50.7384594 66.3053413,53.1399425 C66.0263714,55.5431223 64.7296857,58.3139529 64.3394274,59.9796852 C63.9520635,61.6245072 64.029167,62.9842214 64.029167,62.9842214 C64.029167,62.9842214 63.4479216,62.8848104 63.3327405,62.5211021 C63.1206935,61.8509765 63.0291674,55.167836 63.7282888,52.551761 Z M50.1790881,33.024746 C49.5648055,33.2165313 46.9607543,29.8078637 47.0459424,29.1860961 C47.1037825,28.7682407 48.3346433,28.5498061 49.0217376,28.7185852 C49.7385254,28.8938519 50.5395032,29.6461712 50.723254,30.1536062 C50.932656,30.731058 50.79372,32.8327611 50.1790881,33.024746 Z M45.1043323,30.9477459 C44.5042727,31.0088797 43.1155119,29.1500646 43.3349449,28.7289155 C43.5741404,28.2692896 45.8625913,28.4960584 46.0498854,28.9249926 C46.2366305,29.3551746 45.7034438,30.8859634 45.1043323,30.9477459 Z M41.1855297,33.861904 C40.7601382,36.2174244 41.0986449,38.6808397 40.6916683,38.6729239 C40.2852407,38.6655688 39.0654089,36.5888681 38.4353563,34.0808876 C37.8352467,31.6912819 37.9294677,28.3928047 38.3604985,28.0448165 C39.1309344,27.4231986 41.9720849,28.2274192 42.2358836,29.1277071 C42.4257228,29.7737785 41.6299851,31.3990377 41.1855297,33.861904 Z M36.0408069,30.9070234 C35.745568,30.9521376 35.1976593,30.0903764 35.0109142,29.3531784 C34.7944755,28.4987532 34.8970306,27.2423925 35.2103851,27.072815 C35.7298479,26.7908512 36.8878472,27.242143 37.1240982,27.8087155 C37.3725261,28.4025362 36.3357464,30.8620589 36.0408069,30.9070234 Z M112.492416,66.9391502 C109.035635,64.7543551 105.584344,62.8593089 101.38233,60.9140583 C93.3196025,57.1845508 86.9515047,55.2064625 85.5545595,55.3431027 C83.4658289,55.5455177 78.1728379,58.0751571 77.5348504,59.5271458 C77.0298102,60.6745637 77.3318362,66.3088988 76.4052471,67.4225309 C75.1653035,68.9105511 71.6109084,70.1040814 70.2252917,70.1070757 C69.1508835,70.108473 68.4446756,69.4771237 68.4446756,69.4771237 C68.4446756,69.4771237 66.6362125,70.3001585 65.8475613,69.8091423 C65.0606068,69.318126 64.4644897,67.9814181 65.2725041,65.4701938 C66.0815166,62.9603168 67.9109399,58.5257502 68.2967068,55.6134386 C68.6821743,52.7002786 68.5125965,48.1044187 67.6015779,46.050824 C66.69011,43.9964808 62.6466444,38.1986068 60.4934364,35.9308195 C58.3396795,33.6607366 51.4764226,28.4987532 49.6641168,27.935175 C47.9103996,27.3906605 44.4224781,28.0067389 42.3692801,27.6973772 C40.3163815,27.3886643 35.1608792,26.0142281 34.1598815,24.6303099 C33.3184805,23.4673216 33.4951448,20.9629842 34.1552403,19.7244895 C34.8151362,18.4875418 36.4803217,17.1903088 37.9994846,16.3347358 C39.5500878,15.4616462 40.6437094,14.987997 40.8157325,14.6204959 C40.9747304,14.2792947 40.6877258,13.5019231 40.2933253,13.5620587 C39.8811087,13.6245898 39.1565357,14.8621363 38.1535418,15.6133078 C37.1516958,16.3654275 35.9496801,17.1057196 35.4805716,17.1091132 C34.9481335,17.1138043 34.5213446,16.0713368 33.6592329,16.2174589 C33.1356779,16.3061901 33.6966119,17.3135245 33.7717192,18.2835298 C33.8459781,19.2551321 33.5269843,19.9809517 33.5269843,19.9809517 C33.5269843,19.9809517 33.2615886,18.635211 32.7806027,17.9221171 C32.3003654,17.2092727 31.5067236,16.7680618 31.5504406,16.2890727 C31.5961537,15.8010009 33.3271141,14.5360564 34.3952841,14.7304368 C35.3807114,14.9099454 35.8377927,16.2590797 35.8377927,16.2590797 C35.8377927,16.2590797 35.9008729,14.9055537 35.1264945,14.2985082 C34.3520164,13.6929099 32.835199,14.3264051 32.835199,14.3264051 C32.835199,14.3264051 33.4583647,13.4437836 34.6224524,12.9849063 C36.3688335,12.2961162 39.0069699,12.6151095 39.0069699,12.6151095 C39.0069699,12.6151095 42.2692702,10.6002413 44.6021367,10.9182864 C46.9360014,11.236132 49.1001386,13.2791467 49.1001386,13.2791467 C49.1001386,13.2791467 46.9554145,10.4576624 44.4028155,10.2141755 C41.7791017,9.96464998 38.4423929,11.8217683 38.4423929,11.8217683 C38.4423929,11.8217683 35.8704806,11.8667827 34.1537931,12.6370179 C32.4375547,13.4080017 30.9097581,15.5138469 30.7544533,16.309434 C30.5992482,17.1060191 32.6770495,19.0133419 33.0369655,20.3612286 C33.2352886,21.1033173 32.4644535,22.8612742 33.0749933,24.3394631 C33.2874894,24.8542341 33.9597119,25.3504904 33.9597119,25.3504904 C33.9597119,25.3504904 33.7095873,25.8846745 33.8335517,26.4316842 C33.9571667,26.9775961 34.3194782,27.3638116 34.3194782,27.3638116 C34.319578,27.3638116 34.1982087,28.445255 34.5193484,29.5458619 C34.8215241,30.5826403 35.6192082,31.661289 36.1242484,31.6259562 C36.6292886,31.5905734 37.3070006,29.7917443 37.3070006,29.7917443 C37.3071503,29.7917443 37.3018105,32.2004137 37.9738833,34.6886318 C38.6188076,37.079485 40.0270813,39.6368716 40.9009206,39.3946822 C41.7736121,39.1514947 41.344827,36.6450612 41.6948119,34.4483887 C42.0482901,32.2222222 42.9577617,29.7763236 42.9577617,29.7763236 C42.9577617,29.7763236 44.276805,31.8853628 45.2683207,31.5628262 C45.998533,31.3256273 46.5438965,29.8799765 46.5438965,29.8799765 C46.5438965,29.8799765 49.0371583,34.0042333 50.4003177,33.5829345 C51.2001477,33.3368026 51.3374866,31.173267 51.3374866,31.173267 C51.3374866,31.173267 58.7661689,35.65185 60.4624453,37.4754321 C62.1590211,39.2987646 65.2757479,46.6720926 65.2757479,46.6720926 C65.2757479,46.6720926 63.8611363,48.8857328 63.1649594,50.8392178 C62.4679839,52.7905569 62.7325312,62.899233 62.7325312,62.899233 C62.7325312,62.899233 61.4942844,62.9395563 59.9210741,62.5454059 C58.4058537,62.1665763 56.3294498,61.1825477 55.9159855,61.6369336 C55.4985289,62.0968589 56.3539532,64.0671619 58.5074606,65.7249593 C60.6619162,67.3841539 62.7516448,67.8453269 62.7516448,67.8453269 C62.7518944,67.8453269 62.7691615,68.5034254 63.1963996,68.8668343 C63.6237375,69.2295445 64.2590801,69.1464026 64.2590801,69.1464026 C64.2590801,69.1464026 64.4220204,70.0238839 65.1064197,70.465544 C66.0236766,71.0574184 68.2749482,70.5364092 68.2749482,70.5364092 C68.2749482,70.5364092 69.0490271,71.1435546 70.3236048,71.0888087 C71.7124654,71.027675 76.125878,69.7600357 77.4538044,68.0211925 C78.6161953,66.5008837 77.6621584,61.2550099 78.3575868,60.1166248 C79.0534643,58.9762934 82.8199065,57.1302041 85.127022,57.0689706 C87.4337382,57.008286 94.1877527,58.8103589 101.229969,62.024247 C105.277777,63.8714841 108.718189,66.1392714 112.208505,68.5331189 L112.492416,66.9391502 Z" id="Fill-4" fill="#FEFEFE"></path>
                <path d="M71.3873832,46.3254019 C71.3873832,46.3254019 74.6492842,50.087198 75.0369974,51.8453045 C75.4239121,53.6021136 73.9661325,56.3295268 73.6798266,57.8808266 C73.393371,59.4336735 73.8836891,61.373235 74.4424273,61.5005928 C75.2046288,61.6738633 77.0357489,59.5608317 77.0357489,59.5608317 C77.0357489,59.5608317 75.3106273,60.5872797 74.8284936,60.3609601 C74.3476574,60.135439 74.2166564,58.5350824 74.5626987,57.5601365 C74.9079925,56.5866877 76.2950565,53.3863738 75.895416,51.7336668 C75.4956258,50.079812 71.3871337,46.3258011 71.3873832,46.3254019" id="Fill-5" fill="#FEFEFE"></path>
                <path d="M68.52657,46.0127464 C68.52657,46.0127464 70.1673019,50.8134668 70.2458027,52.6821631 C70.3250022,54.5521568 68.9683803,59.4906652 68.9683803,59.4906652 C68.9683803,59.4906652 71.2781907,55.2542716 71.1693975,52.7476884 C71.0727811,50.5664366 68.52657,46.0127464 68.52657,46.0127464" id="Fill-6" fill="#FEFEFE"></path>
                <path d="M66.1669543,42.1236425 C66.1669543,42.1236425 63.6311234,38.2974688 61.3469144,35.5806854 C59.0622563,32.8624547 55.3982195,29.6461712 53.6903153,28.5168688 C51.9821615,27.388814 50.6393634,26.5767084 51.0003773,26.1958827 C51.3618404,25.8145079 53.3501118,26.7801216 54.6661607,27.7638508 C56.105675,28.8404035 59.9135884,32.4536321 61.9121902,35.0749471 C63.8131775,37.5668083 66.1669543,42.1236425 66.1669543,42.1236425" id="Fill-7" fill="#FEFEFE"></path>
                <path d="M67.9663846,45.0179882 C67.9663846,45.0179882 66.3267007,43.1151569 66.795909,42.8943268 C67.2653169,42.6741955 67.9663846,45.0183874 67.9663846,45.0179882" id="Fill-8" fill="#FEFEFE"></path>
                <path d="M54.5508299,13.6311274 C52.6772904,14.273905 51.8766121,16.0431903 51.8914263,16.5315116 C51.9033612,16.9346949 53.1443029,19.9450201 54.9473763,21.6575633 C56.8533042,23.4653254 60.1522348,25.1254184 61.7791929,27.132202 C63.4062009,29.1397343 64.9040044,32.4422039 65.8565941,34.7938816 C66.8092337,37.14526 67.2736511,38.9760783 67.2736511,38.9760783 C67.2739505,38.9760783 67.0802686,39.7428201 67.4436779,40.4154909 C67.8939722,41.2508024 70.3017963,43.1537834 72.1217376,44.0412956 C73.9425273,44.9298558 76.6035702,45.2822357 76.6035702,45.2822357 C76.6038696,45.2822357 74.0412397,44.4282098 72.3340841,43.2995063 C70.6254811,42.1697548 68.2714049,39.6621735 67.8952198,38.9004221 C67.5190846,38.137473 66.3664252,34.9591174 65.4296555,32.6507074 C64.5623537,30.5148691 62.9345472,26.8132087 62.3048938,26.0429235 C61.6756397,25.2711413 56.5125019,22.1992332 55.0468373,20.8085279 C53.4458798,19.2892172 52.436548,16.9339962 52.436548,16.9339962 C52.436548,16.9339962 52.864335,16.7763959 53.0470877,16.412987 C53.2400709,16.0299155 53.341079,15.290871 53.6422067,14.7488018 C53.9709819,14.1563785 54.5508299,13.6311274 54.5508299,13.6311274" id="Fill-9" fill="#FEFEFE"></path>
                <path d="M67.6400547,8.84822312 C67.6400547,8.84822312 69.479509,10.657682 69.3950196,12.0561725 C69.3224575,13.2676686 67.2133656,14.3995161 66.8720143,14.3754618 C66.5306631,14.351707 65.8580413,13.7969121 65.9699287,13.5196394 C66.1458943,13.0863134 68.2807372,12.7564408 68.4751178,11.7613831 C68.6687498,10.7671738 67.6397553,8.84822312 67.6400547,8.84822312" id="Fill-10" fill="#FEFEFE"></path>
                <path d="M50.1350718,18.3753551 C50.1350718,18.3753551 48.9135432,16.2306338 47.5666529,15.1664077 C46.219513,14.1025808 43.1999515,14.2358773 43.0392569,13.9989279 C42.8789615,13.7611301 43.5446963,13.1502918 43.9935932,13.0614108 C44.4575615,12.9691862 46.7085337,13.405756 47.9228759,14.5193382 C49.2521996,15.7379208 50.1350718,18.3753551 50.1350718,18.3753551" id="Fill-11" fill="#FEFEFE"></path>
                <path d="M56.524529,11.3266598 C56.524529,11.3266598 57.8119823,9.67704693 59.2699116,9.51765006 C60.0151454,9.43585561 60.3204152,9.76517932 60.3204152,9.76517932 C60.3204152,9.7649298 61.6660579,9.33654447 62.6008314,9.52992671 C63.6394576,9.7444188 64.3008008,10.6507452 64.3008008,10.6507452 C64.3008008,10.6507452 62.6954516,10.197058 60.9697312,10.6385684 C59.2446097,11.0798292 58.0778271,12.6144109 57.4137891,12.9628482 C56.7303878,13.3221649 55.0652024,13.5196394 54.851758,12.9317075 C54.6858234,12.4742275 55.6744945,12.0416002 55.6744945,12.0416002 L56.524529,11.3266598 Z" id="Fill-12" fill="#FEFEFE"></path>
                <path d="M56.5931486,10.5992432 C56.5931486,10.5992432 56.9632453,9.17120889 57.8571465,8.47787742 C58.7511974,7.78344803 60.3341391,7.76333628 60.5412455,8.13243435 C60.74935,8.50053433 59.4066019,8.46954327 58.399915,9.0567266 C57.3929786,9.64425928 56.5931486,10.5992432 56.5931486,10.5992432" id="Fill-13" fill="#FEFEFE"></path>
                <path d="M40.3500176,16.8775535 C40.4253245,17.0856578 40.3179286,17.3145226 40.1102732,17.3896297 C39.9034662,17.4648866 39.6737029,17.3585388 39.5985956,17.1504346 C39.5235881,16.943029 39.6308343,16.7133159 39.8379407,16.6382087 C40.0453466,16.5632014 40.2749103,16.6704474 40.3500176,16.8775535" id="Fill-14" fill="#FEFEFE"></path>
                <path d="M37.8566061,19.2788869 C37.9223811,19.4599426 37.8291583,19.6587145 37.6483519,19.7244895 C37.4684438,19.7895657 37.2692723,19.6961933 37.2034474,19.5158363 C37.138421,19.3354793 37.2313444,19.1365575 37.4113024,19.0710821 C37.5920589,19.0057064 37.7916795,19.0992285 37.8566061,19.2788869" id="Fill-15" fill="#FEFEFE"></path>
                <path d="M36.5845735,21.4782044 C36.6497996,21.6581622 36.5565767,21.8578823 36.3757704,21.9231083 C36.1954131,21.9886337 35.9959422,21.8951115 35.9308659,21.7156029 C35.8650909,21.5344973 35.9583137,21.3356255 36.1389704,21.2700003 C36.3197269,21.2046247 36.5187985,21.2973982 36.5845735,21.4782044" id="Fill-16" fill="#FEFEFE"></path>
                <path d="M47.4280163,17.4344944 C47.4932424,17.6154004 47.4000195,17.8151705 47.2196623,17.8803964 C47.039854,17.9458719 46.8400837,17.8526492 46.7744584,17.671843 C46.7089828,17.4907873 46.8024552,17.2917658 46.9824132,17.2263902 C47.1632196,17.1611642 47.3622413,17.2541374 47.4280163,17.4344944" id="Fill-17" fill="#FEFEFE"></path>
                <path d="M48.1800372,22.6698881 C48.2451135,22.8503949 48.1531882,23.0497158 47.9722321,23.1149418 C47.7915754,23.1804172 47.5921045,23.0871945 47.5266289,22.9064383 C47.4614029,22.7264805 47.5546257,22.5273093 47.7351327,22.4619336 C47.9160888,22.3967076 48.1145616,22.4902298 48.1800372,22.6698881" id="Fill-18" fill="#FEFEFE"></path>
                <path d="M44.6997512,16.3357339 C44.7748585,16.5428401 44.6683609,16.7723037 44.460955,16.8471114 C44.2529004,16.9226678 44.0242849,16.8151722 43.9488782,16.6076169 C43.8737709,16.4009599 43.980568,16.1711968 44.1880736,16.0956904 C44.3957789,16.0211322 44.6246439,16.1283783 44.6997512,16.3357339" id="Fill-19" fill="#FEFEFE"></path>
                <path d="M39.7154236,19.1036202 C39.7908303,19.311974 39.6843327,19.5404395 39.4759287,19.6156964 C39.2688223,19.6914024 39.0396578,19.5843061 38.9638519,19.3765012 C38.8889941,19.1690957 38.9965398,18.9392328 39.2033467,18.8646746 C39.4114513,18.7890185 39.6406157,18.896514 39.7154236,19.1036202" id="Fill-20" fill="#FEFEFE"></path>
                <path d="M38.8202747,21.4250055 C38.895382,21.6325608 38.7881358,21.862274 38.5807799,21.9376806 C38.373374,22.0125382 38.1440598,21.9049927 38.0686532,21.6978866 C37.9932465,21.4900818 38.1010416,21.2613667 38.308148,21.1858104 C38.5155538,21.1107033 38.7447183,21.2172007 38.8202747,21.4250055" id="Fill-21" fill="#FEFEFE"></path>
                <path d="M38.1207042,23.6749767 C38.195562,23.8822326 38.0880663,24.1122452 37.8806604,24.1871028 C37.6738534,24.26221 37.4440901,24.1551136 37.3691325,23.9478578 C37.2932767,23.7398034 37.4012216,23.5113379 37.608328,23.4354822 C37.8157338,23.360375 38.0451977,23.4673216 38.1207042,23.6749767" id="Fill-22" fill="#FEFEFE"></path>
                <path d="M46.3671824,23.7348129 C46.4420401,23.9416695 46.3350934,24.1716821 46.1276875,24.2464899 C45.9202817,24.3214972 45.6908677,24.2145506 45.6156107,24.0069953 C45.540204,23.7990408 45.6479991,23.5704755 45.8551055,23.4950689 C46.0622119,23.419812 46.291626,23.5270081 46.3671824,23.7348129" id="Fill-23" fill="#FEFEFE"></path>
                <path d="M47.8436265,20.1114037 C47.9190332,20.3195079 47.8122361,20.5482229 47.6048303,20.6233301 C47.3970252,20.6991859 47.1683099,20.5919398 47.0927535,20.384135 C47.0179456,20.1767294 47.1244432,19.9470163 47.3322483,19.8721586 C47.5396542,19.7969018 47.7685192,19.9041478 47.8436265,20.1114037" id="Fill-24" fill="#FEFEFE"></path>
                <path d="M45.7269491,18.1996393 C45.8023059,18.4071946 45.6952593,18.6362091 45.4880032,18.7110667 C45.2800484,18.7861739 45.0514329,18.6796265 44.9763256,18.4715722 C44.9009189,18.2641666 45.0077159,18.0353018 45.2158205,17.9594461 C45.4229269,17.8843389 45.6517919,17.9922836 45.7269491,18.1996393" id="Fill-25" fill="#FEFEFE"></path>
                <path d="M42.7295954,16.4587999 C42.8147835,16.6935036 42.6936636,16.9518123 42.4588599,17.0369504 C42.2248546,17.1221384 41.9653977,17.0011685 41.8805589,16.766365 C41.7956702,16.5319608 41.9168898,16.2729533 42.1511447,16.1879151 C42.3856989,16.1030265 42.644557,16.2238467 42.7295954,16.4587999" id="Fill-26" fill="#FEFEFE"></path>
                <path d="M41.7626829,18.9905851 C41.8481205,19.2248397 41.7269009,19.4836974 41.4923467,19.5685859 C41.2579421,19.6537739 40.9977865,19.532804 40.9129478,19.2982501 C40.8280591,19.0636961 40.9499774,18.804539 41.1843819,18.7197003 C41.4189362,18.634662 41.6777942,18.7554822 41.7626829,18.9905851" id="Fill-27" fill="#FEFEFE"></path>
                <path d="M43.7898804,18.7177041 C43.874769,18.9525076 43.7540984,19.2111158 43.5193944,19.2963038 C43.2845407,19.3811424 43.024984,19.2602224 42.9400953,19.0256684 C42.8549571,18.7905655 42.976576,18.5311089 43.2112799,18.4462204 C43.4455348,18.3616312 43.7046922,18.4820023 43.7898804,18.7177041" id="Fill-28" fill="#FEFEFE"></path>
                <path d="M45.7796988,20.8414653 C45.864837,21.0770173 45.7441664,21.3356255 45.5093626,21.4206139 C45.2746586,21.5055025 45.0158006,21.3846822 44.9306125,21.149729 C44.8457737,20.9156243 44.9665442,20.656018 45.2010984,20.5710296 C45.4359521,20.4858416 45.6951096,20.6076599 45.7796988,20.8414653" id="Fill-29" fill="#FEFEFE"></path>
                <path d="M43.5523318,21.4277004 C43.6372205,21.6622544 43.5165498,21.9219605 43.2818957,22.0069988 C43.047591,22.092037 42.788184,21.9705181 42.7032953,21.7359642 C42.6184067,21.5012605 42.7396263,21.2422531 42.9738811,21.1575142 C43.2085851,21.0720767 43.4671936,21.1932962 43.5523318,21.4277004" id="Fill-30" fill="#FEFEFE"></path>
                <path d="M41.1384193,21.600422 C41.2235575,21.8358243 41.1028868,22.0948317 40.8682327,22.17987 C40.6339779,22.2647586 40.3740719,22.1442378 40.2889337,21.9083863 C40.2037456,21.6741318 40.3254143,21.4149746 40.5601183,21.3298365 C40.7949221,21.2450977 41.0535306,21.365868 41.1384193,21.600422" id="Fill-31" fill="#FEFEFE"></path>
                <path d="M40.7424717,24.0736186 C40.8273604,24.3080228 40.7053922,24.5676291 40.4709877,24.6525177 C40.2364334,24.7372566 39.9775754,24.6167358 39.8926867,24.3818824 C39.8072491,24.1476279 39.9284687,23.8884707 40.1630229,23.8035822 C40.3974275,23.7185439 40.6570341,23.8391146 40.7424717,24.0736186" id="Fill-32" fill="#FEFEFE"></path>
                <path d="M43.6251933,24.174377 C43.710082,24.4081824 43.5878643,24.6674892 43.353859,24.7529268 C43.1192049,24.8378153 42.8601472,24.7162964 42.775009,24.4823413 C42.6899707,24.247488 42.8112402,23.98878 43.0456447,23.903592 C43.280199,23.8184539 43.5397557,23.9396733 43.6251933,24.174377" id="Fill-33" fill="#FEFEFE"></path>
                <path d="M44.7618831,10.4905998 C44.7618831,10.4905998 46.6682103,10.2427711 47.8739189,9.69476323 C49.0797274,9.14715464 51.7089806,7.12065847 53.6249894,6.38989818 C55.540549,5.65724149 57.0614087,5.36499726 57.0614087,5.36499726 C57.0614087,5.36499726 60.8008522,2.95003984 61.748102,2.8438418 C62.2281896,2.87862565 64.5288174,2.97299618 66.1947015,3.33455859 C68.027219,3.73265153 69.8235052,4.02364813 69.9717735,4.08967257 C70.0399439,4.44320026 64.1774352,2.96915349 60.5630541,4.31743942 C57.4695331,5.47064634 56.8743642,8.31618491 56.2712104,8.38635147 C55.6691047,8.45736642 55.6671584,6.72091867 55.6671584,6.72091867 C55.6671584,6.72091867 54.4053065,6.80860192 52.8933299,7.43106816 C51.3816527,8.05263611 49.0640571,9.81822844 47.9778714,10.285939 C46.8900387,10.7535996 46.1060287,11.0385078 46.1060287,11.0385078 L44.7618831,10.4905998 Z" id="Fill-34" fill="#FEFEFE"></path>
                <path d="M91.1908481,13.9068031 C91.0038535,14.0371053 90.8375196,14.1699527 90.71625,14.2869302 C89.7598177,15.2113722 89.7642093,16.5543183 89.7642093,16.5543183 C89.7642093,16.5543183 91.7534788,16.9424801 93.0675316,17.6111584 C94.3825824,18.2801362 95.7415997,19.3770502 95.8325768,20.3414162 C95.9244023,21.3077286 94.1843591,23.0764649 93.4199119,22.6585597 C92.7281765,22.281876 94.7459918,21.2178994 94.6871536,20.2409573 C94.6302617,19.2876702 93.3809859,18.2030329 92.0373893,17.7263394 C90.5953298,17.2146625 88.5851001,17.2774431 88.5851001,17.2774431 C88.5851001,17.2774431 88.4535501,14.9519655 90.0282076,13.6124129 C90.1320103,13.5237316 90.3960086,13.3054467 90.3960086,13.3054467 L91.1908481,13.9068031 Z" id="Fill-35" fill="#FEFEFE"></path>
                <path d="M87.8840325,45.8895308 C87.8840325,45.8895308 85.8267422,45.4167798 84.5801612,44.4255149 C83.3338298,43.4369948 82.2224918,41.2892792 82.2224918,41.2892792 C82.2224918,41.2892792 89.2118091,37.4235308 89.9172684,35.3923934 C90.6230272,33.3631026 90.1303136,29.6597453 89.3573825,27.8337179 C88.5844015,26.005894 86.7299757,23.6474291 86.7299757,23.6474291 C86.7299757,23.6474291 90.1130464,25.6363966 92.4467613,25.7506793 C94.7912558,25.8665589 99.6059558,24.7877605 101.226426,23.6474291 L102.203819,24.9133716 C100.538334,25.9250976 94.8066764,26.8552288 92.8353728,26.7201357 C90.8635201,26.5847432 88.5634912,25.2380043 88.5634912,25.2380043 C88.5634912,25.2380043 89.8272894,26.8857707 90.3303334,28.4790906 C90.8333774,30.0702647 91.7032743,34.4617133 90.8939623,36.1479566 C89.8196539,38.3856012 83.0094962,41.5214377 83.0094962,41.5214377 C83.0094962,41.5214377 83.9047947,42.9707315 85.0735735,43.9517659 C86.2423524,44.9330996 87.8840325,45.8898302 87.8840325,45.8895308" id="Fill-36" fill="#FEFEFE"></path>
                <polygon id="Fill-37" fill="#FEFEFE" points="31.8125924 87.8890093 34.9621069 87.8890093 34.9621069 83.8373146 37.9113521 83.8373146 37.9113521 87.8890093 41.0611661 87.8890093 41.0611661 77.6668491 37.9113521 77.6668491 37.9113521 81.2171474 34.9621069 81.2171474 34.9621069 77.6668491 31.8125924 77.6668491"></polygon>
                <path d="M51.8986702,81.4750569 C51.6267869,78.8983072 50.0948981,77.4379843 47.2744082,77.4236616 C44.1248438,77.4236616 42.0917575,79.5710778 42.0917575,82.7780789 C42.0917575,85.798435 43.9672433,88.132147 47.2744082,88.132147 C50.2666218,88.132147 51.9416884,85.9418623 51.9416884,83.8803327 L48.8493152,83.8803327 C48.6488462,84.854031 48.2481078,85.5839929 47.1885215,85.5839929 C45.7139238,85.5839929 45.2415715,84.1522157 45.2415715,82.7780789 C45.2415715,81.4035928 45.7139238,79.9718656 47.1885215,79.9718656 C48.4915452,79.9718656 48.7634285,81.1028647 48.8350424,81.4750569 L51.8986702,81.4750569 Z" id="Fill-38" fill="#FEFEFE"></path>
                <polygon id="Fill-39" fill="#FEFEFE" points="57.4678363 87.8890093 65.1415031 87.8890093 65.1415031 85.2692414 60.6175006 85.2692414 60.6175006 77.6668491 57.4678363 77.6668491"></polygon>
                <polygon id="Fill-40" fill="#FEFEFE" points="66.2006402 87.8890093 74.8193111 87.8890093 74.8193111 85.2692414 69.3504542 85.2692414 69.3504542 83.9949148 74.1749357 83.9949148 74.1749357 81.5611931 69.3504542 81.5611931 69.3504542 80.286617 74.6618603 80.286617 74.6618603 77.6668491 66.2006402 77.6668491"></polygon>
                <polygon id="Fill-41" fill="#FEFEFE" points="84.6976879 77.6668491 81.4622865 77.6668491 79.8156658 83.8659102 79.7872199 83.8659102 78.1120035 77.6668491 74.9337436 77.6668491 77.9831484 87.8890093 81.5051551 87.8890093"></polygon>
                <path d="M33.0673578,92.5052306 L35.3422345,92.5052306 C36.3357464,92.5052306 37.1617267,92.6605352 37.1617267,93.8577584 C37.1617267,94.7673786 36.6350776,95.222563 35.3422345,95.222563 L33.0673578,95.222563 L33.0673578,92.5052306 Z M31.9302687,100.094697 L36.0604696,100.094697 C37.7484117,100.094697 38.6581329,98.8857965 38.6581329,97.6406145 C38.6581329,96.5871179 38.0836746,95.8090975 37.0298773,95.5818796 L37.0301767,95.5578753 C37.8321526,95.2345901 38.2991152,94.5518884 38.2991152,93.6423181 C38.2991152,92.7922348 37.8562069,92.193723 37.2934264,91.8586103 C36.7906818,91.5472025 35.7731157,91.5472025 35.0307265,91.5472025 L31.9302687,91.5472025 L31.9302687,100.094697 Z M33.0673578,96.1801419 L35.6653205,96.1801419 C36.6230504,96.1801419 37.5208941,96.4917992 37.5208941,97.6048325 C37.5208941,98.5504842 36.9105041,99.1373182 35.916593,99.1373182 L33.0673578,99.1373182 L33.0673578,96.1801419 Z" id="Fill-42" fill="#FEFEFE"></path>
                <polygon id="Fill-43" fill="#FEFEFE" points="39.8911396 100.094697 45.829055 100.094697 45.829055 99.1373182 41.0284782 99.1373182 41.0284782 96.1801419 45.4697379 96.1801419 45.4697379 95.222563 41.0284782 95.222563 41.0284782 92.5052306 45.793273 92.5052306 45.793273 91.5472025 39.8911396 91.5472025"></polygon>
                <polygon id="Fill-44" fill="#FEFEFE" points="46.9538175 100.094697 48.0313697 100.094697 48.0313697 93.2354419 48.0551245 93.2354419 52.5205882 100.094697 53.7655722 100.094697 53.7655722 91.5472025 52.68807 91.5472025 52.68807 98.4786208 52.6643151 98.4786208 48.1629197 91.5472025 46.9538175 91.5472025"></polygon>
                <polygon id="Fill-45" fill="#FEFEFE" points="55.3696238 100.094697 61.3075892 100.094697 61.3075892 99.1373182 56.5070123 99.1373182 56.5070123 96.1801419 60.9485215 96.1801419 60.9485215 95.222563 56.5070123 95.222563 56.5070123 92.5052306 61.2717573 92.5052306 61.2717573 91.5472025 55.3696238 91.5472025"></polygon>
                <path d="M68.466035,94.0491445 C68.4061987,92.1699681 67.0653968,91.3437893 65.3174687,91.3437893 C63.7492489,91.3437893 62.2170608,92.1221092 62.2170608,93.8457313 C62.2170608,96.982516 67.6878639,95.4380532 67.6878639,97.7841914 C67.6878639,99.017496 66.5504754,99.340881 65.5211815,99.340881 C64.2282387,99.340881 63.0308642,98.7181653 63.0308642,97.2814475 L61.9535116,97.2814475 C61.9535116,99.3527585 63.5695904,100.298161 65.4851001,100.298161 C67.0414923,100.298161 68.8250527,99.5681988 68.8250527,97.7485592 C68.8252024,94.3844069 63.3540999,95.8689337 63.3540999,93.7619906 C63.3540999,92.6485081 64.2998027,92.3012185 65.2696595,92.3012185 C66.4548571,92.3012185 67.2569328,92.8159896 67.3885327,94.0491445 L68.466035,94.0491445 Z M67.2088742,89.0570381 L66.2872257,89.0570381 L65.4491684,90.2066019 L64.6233378,89.0570381 L63.617649,89.0570381 L64.8625332,90.7693318 L65.9758674,90.7693318 L67.2088742,89.0570381 Z" id="Fill-46" fill="#FEFEFE"></path>
                <path d="M70.6207901,95.8211247 C70.6207901,94.0969536 71.4946294,92.3012185 73.5776707,92.3012185 C75.660712,92.3012185 76.5345514,94.0969536 76.5345514,95.8211247 C76.5345514,97.545146 75.660712,99.340881 73.5776707,99.340881 C71.4949288,99.340881 70.6207901,97.545146 70.6207901,95.8211247 Z M69.4834515,95.8211247 C69.4834515,98.1553855 70.8603348,100.298161 73.5776707,100.298161 C76.2953559,100.298161 77.6719398,98.1553855 77.6719398,95.8211247 C77.6719398,93.4864146 76.2953559,91.3437893 73.5776707,91.3437893 C70.8603348,91.3437893 69.4834515,93.4864146 69.4834515,95.8211247 L69.4834515,95.8211247 Z" id="Fill-47" fill="#FEFEFE"></path>
                <polygon id="Fill-48" fill="#FEFEFE" points="85.2254848 91.5472025 84.0403371 91.5472025 81.5741739 98.9576598 81.5502693 98.9576598 79.1080606 91.5472025 77.8749041 91.5472025 80.8917708 100.094697 82.1846138 100.094697"></polygon>
                <polygon id="Fill-49" fill="#FDD715" points="28.778758 65.520548 21.0917666 69.1917663 24.7350428 61.4915101 16.7037058 58.6510619 24.7249619 55.7827666 21.0539883 48.0956354 28.7543044 51.7390566 31.5941575 43.7076301 34.4627559 51.7289758 42.149897 48.0580069 38.5064711 55.7583131 46.5376584 58.597863 38.5166518 61.4664578 42.1875255 69.1537387 34.4872094 65.5102176 31.6473564 73.5414944"></polygon>
                <circle id="Oval" fill="url(#linearGradient-2)" opacity="0.8" style="mix-blend-mode: overlay;" cx="58" cy="58" r="58"></circle>
            </g>
        </g>
    </g>
</svg>