<?xml version="1.0" encoding="UTF-8"?>
<svg width="24px" height="24px" viewBox="0 0 24 24" version="1.1" xmlns="http://www.w3.org/2000/svg" xmlns:xlink="http://www.w3.org/1999/xlink">
    <title>ico 24 / home copy 3@3x</title>
    <g id="✅-ToCode" stroke="none" stroke-width="1" fill="none" fill-rule="evenodd">
        <g id="Homepage-V3" transform="translate(-1646, -30)">
            <g id="search-lg" transform="translate(1649, 33)">
                <path d="M8.5,17 C13.1944,17 17,13.1944 17,8.5 C17,3.80558 13.1944,0 8.5,0 C3.80558,0 0,3.80558 0,8.5 C0,13.1944 3.80558,17 8.5,17 Z" id="Path" fill="#FDD715" fill-rule="nonzero" opacity="0.12"></path>
                <path d="M18,18 L14.5001,14.5 M17,8.5 C17,13.1944 13.1944,17 8.5,17 C3.80558,17 0,13.1944 0,8.5 C0,3.80558 3.80558,0 8.5,0 C13.1944,0 17,3.80558 17,8.5 Z" id="Shape" stroke="#FDD715" stroke-width="2" stroke-linecap="round" stroke-linejoin="round"></path>
            </g>
        </g>
    </g>
</svg>