<?xml version="1.0" encoding="UTF-8"?>
<svg width="24px" height="24px" viewBox="0 0 24 24" version="1.1" xmlns="http://www.w3.org/2000/svg" xmlns:xlink="http://www.w3.org/1999/xlink">
    <title>ico 24 / home copy 2</title>
    <g id="✅-ToCode" stroke="none" stroke-width="1" fill="none" fill-rule="evenodd">
        <g id="Homepage-V3" transform="translate(-250, -30)">
            <g id="1479877199-youtube" transform="translate(252, 32)">
                <rect id="Rectangle" x="0" y="0" width="20" height="20"></rect>
                <path d="M19.8,5.9725 C19.8,5.9725 19.604375,4.58453125 19.005,3.9734375 C18.244375,3.1709375 17.391875,3.1671875 17.00125,3.120625 C14.2025,2.91671875 10.004375,2.91671875 10.004375,2.91671875 L9.995625,2.91671875 C9.995625,2.91671875 5.7975,2.91671875 2.99875,3.120625 C2.6075,3.1671875 1.755625,3.1709375 0.994375,3.9734375 C0.395,4.5846875 0.2,5.9725 0.2,5.9725 C0.2,5.9725 0,7.6028125 0,9.23234375 L0,10.760625 C0,12.3907813 0.2,14.0204688 0.2,14.0204688 C0.2,14.0204688 0.395,15.4084375 0.994375,16.0195312 C1.755625,16.8220312 2.755,16.796875 3.2,16.880625 C4.8,17.0354687 10,17.0832812 10,17.0832812 C10,17.0832812 14.2025,17.0770313 17.00125,16.873125 C17.391875,16.8259375 18.244375,16.8221875 19.005,16.0196875 C19.604375,15.4084375 19.8,14.020625 19.8,14.020625 C19.8,14.020625 20,12.3909375 20,10.760625 L20,9.23234375 C20,7.6028125 19.8,5.9725 19.8,5.9725 Z M7.935,12.6125 L7.934375,6.95328125 L13.338125,9.79265625 L7.935,12.6125 Z" id="Youtube" fill="#174f9b"></path>
            </g>
        </g>
    </g>
</svg>