<svg width="282" height="234" viewBox="0 0 282 234" xmlns="http://www.w3.org/2000/svg"><g fill="#174F9B" fill-rule="evenodd"><path d="M220.658 164.984s42.683 9.116 60.417 17.41l.434 6.106-60.851-23.516zM110.983 218.965c-2.402.975-8.318-1.26-13.672-4.998-5.387-3.763-9.678-10.042-9.199-11.06.477-1.024 7.353 2.12 13.44 3.486 7.033 1.577 12.672 1.655 12.672 1.655 1.415 3.613-.843 9.943-3.24 10.917zm2.023-49.017c2.38-8.912 7.336-15.686 7.336-15.686s2.391 9.511 1.44 17.689c-.95 8.183-5.366 17.618-6.695 23.29-1.32 5.601-1.057 10.231-1.057 10.231s-1.979-.338-2.371-1.577c-.722-2.282-1.034-25.039 1.347-33.947zm-46.138-66.493c-2.091.653-10.959-10.954-10.668-13.071.197-1.423 4.388-2.167 6.727-1.592 2.441.597 5.169 3.158 5.794 4.886.714 1.967.24 9.123-1.853 9.777zm-17.28-7.073c-2.043.209-6.772-6.121-6.025-7.555.814-1.565 8.607-.793 9.245.668.636 1.464-1.18 6.677-3.22 6.887zm-13.344 9.924c-1.449 8.02-.296 16.409-1.682 16.382-1.384-.025-5.538-7.097-7.683-15.637-2.043-8.137-1.723-19.369-.255-20.554 2.624-2.116 12.298.622 13.196 3.688.647 2.2-2.063 7.734-3.576 16.12zM18.725 96.244c-1.005.153-2.87-2.781-3.507-5.291-.737-2.91-.388-7.188.68-7.765 1.768-.96 5.712.576 6.516 2.505.846 2.023-2.684 10.398-3.689 10.55zm260.331 122.695c-11.77-7.44-23.523-13.892-37.832-20.516-27.455-12.7-49.14-19.435-53.896-18.97-7.112.69-25.136 9.303-27.308 14.247-1.72 3.907-.692 23.093-3.847 26.885-4.222 5.067-16.325 9.132-21.044 9.142-3.658.004-6.063-2.145-6.063-2.145s-6.158 2.802-8.844 1.13c-2.68-1.672-4.71-6.224-1.958-14.775 2.755-8.546 8.984-23.647 10.298-33.564 1.313-9.92.735-25.57-2.367-32.562-3.104-6.995-16.872-26.738-24.204-34.46-7.334-7.73-30.705-25.308-36.876-27.227-5.972-1.854-17.849.244-24.84-.81-6.99-1.05-24.546-5.731-27.955-10.444-2.865-3.96-2.263-12.487-.015-16.705 2.247-4.212 7.917-8.629 13.09-11.542 5.28-2.973 9.004-4.586 9.59-5.838.541-1.162-.436-3.809-1.78-3.604-1.403.213-3.87 4.427-7.286 6.985-3.411 2.561-7.504 5.082-9.102 5.094-1.813.015-3.266-3.534-6.201-3.037-1.783.302.127 3.733.383 7.036.252 3.308-.834 5.78-.834 5.78s-.904-4.583-2.541-7.011c-1.636-2.427-4.338-3.93-4.19-5.56.156-1.663 6.05-5.97 9.688-5.308 3.355.611 4.912 5.205 4.912 5.205s.215-4.609-2.422-6.676c-2.637-2.062-7.802.095-7.802.095s2.122-3.006 6.085-4.568c5.947-2.346 14.93-1.26 14.93-1.26s11.11-6.86 19.053-5.777c7.947 1.082 15.316 8.039 15.316 8.039S55.891 26.61 47.2 25.78c-8.934-.85-20.296 5.474-20.296 5.474s-8.758.153-14.603 2.776C6.455 36.657 1.253 43.827.724 46.536c-.528 2.713 6.547 9.208 7.773 13.798.675 2.526-1.95 8.513.13 13.546.723 1.753 3.012 3.443 3.012 3.443s-.852 1.819-.43 3.681c.421 1.86 1.655 3.175 1.655 3.175s-.413 3.682.68 7.43c1.03 3.53 3.746 7.203 5.465 7.083 1.72-.12 4.028-6.246 4.028-6.246s-.018 8.202 2.27 16.675c2.197 8.141 6.992 16.85 9.968 16.025 2.971-.828 1.511-9.363 2.703-16.843 1.204-7.58 4.3-15.91 4.3-15.91s4.492 7.182 7.868 6.084c2.487-.808 4.344-5.73 4.344-5.73s8.49 14.043 13.132 12.609c2.723-.838 3.191-8.206 3.191-8.206s25.296 15.25 31.072 21.46c5.777 6.21 16.39 31.317 16.39 31.317s-4.817 7.537-7.187 14.19c-2.374 6.644-1.473 41.066-1.473 41.066s-4.216.137-9.573-1.205c-5.16-1.29-12.23-4.64-13.638-3.094-1.422 1.567 1.491 8.276 8.824 13.92 7.336 5.65 14.452 7.221 14.452 7.221.001 0 .06 2.241 1.515 3.478 1.455 1.236 3.618.952 3.618.952s.555 2.988 2.886 4.492c3.123 2.016 10.789.242 10.789.242s2.636 2.067 6.976 1.88c4.73-.207 19.758-4.524 24.28-10.445 3.958-5.177.71-23.04 3.077-26.916 2.37-3.884 15.195-10.17 23.051-10.378 7.855-.207 30.854 5.93 54.834 16.873 13.783 6.29 25.498 14.013 37.383 22.164l.967-5.428z"/><path d="M139.086 148.746s11.108 12.81 12.428 18.796c1.317 5.982-3.647 15.27-4.621 20.552-.976 5.288.694 11.892 2.596 12.326 2.596.59 8.831-6.605 8.831-6.605s-5.874 3.495-7.516 2.725c-1.637-.768-2.083-6.218-.905-9.538 1.176-3.315 5.899-14.212 4.538-19.84-1.361-5.632-15.351-18.415-15.35-18.416M129.345 147.681s5.587 16.348 5.854 22.71c.27 6.369-4.35 23.185-4.35 23.185s7.866-14.426 7.495-22.961c-.329-7.428-9-22.934-9-22.934M121.31 134.438s-8.635-13.028-16.413-22.28c-7.78-9.256-20.256-20.208-26.072-24.053-5.817-3.841-10.39-6.607-9.16-7.903 1.23-1.3 8.001 1.989 12.483 5.339 4.902 3.666 17.868 15.97 24.674 24.895 6.473 8.485 14.488 24.002 14.488 24.002M127.437 144.294s-5.583-6.48-3.985-7.231c1.598-.75 3.985 7.232 3.985 7.231M81.755 37.416c-6.38 2.19-9.106 8.214-9.056 9.877.04 1.373 4.267 11.623 10.406 17.455 6.49 6.156 17.724 11.808 23.264 18.642 5.54 6.836 10.64 18.081 13.884 26.09 3.244 8.006 4.825 14.24 4.825 14.24.001 0-.658 2.611.58 4.902 1.533 2.844 9.732 9.324 15.929 12.346 6.2 3.026 15.261 4.226 15.261 4.226.001 0-8.725-2.908-14.538-6.752-5.818-3.847-13.834-12.385-15.115-14.98-1.28-2.597-5.206-13.42-8.396-21.28-2.953-7.274-8.496-19.878-10.64-22.501-2.143-2.628-19.724-13.089-24.715-17.824-5.452-5.174-8.888-13.194-8.888-13.194s1.456-.536 2.079-1.774c.657-1.304 1-3.82 2.026-5.667 1.12-2.017 3.094-3.806 3.094-3.806M126.326 21.13s6.264 6.161 5.976 10.923c-.247 4.126-7.429 7.98-8.591 7.898-1.163-.08-3.453-1.97-3.072-2.914.6-1.476 7.869-2.6 8.53-5.987.66-3.386-2.844-9.92-2.843-9.92M66.719 53.571s-4.16-7.303-8.746-10.927c-4.588-3.622-14.87-3.168-15.417-3.975-.546-.81 1.721-2.89 3.25-3.193 1.58-.314 9.245 1.173 13.38 4.965 4.526 4.15 7.533 13.13 7.533 13.13M88.476 29.57s4.384-5.618 9.348-6.16c2.538-.28 3.577.842 3.577.842s4.583-1.46 7.766-.8c3.536.73 5.788 3.816 5.788 3.816s-5.466-1.545-11.343-.042c-5.874 1.503-9.847 6.728-12.108 7.915-2.327 1.223-7.997 1.896-8.724-.106-.565-1.558 2.801-3.031 2.801-3.031l2.895-2.435zM88.71 27.092s1.26-4.862 4.304-7.223c3.044-2.365 8.434-2.433 9.14-1.177.708 1.254-3.864 1.148-7.292 3.148-3.429 2-6.153 5.252-6.153 5.252M33.399 48.471a1.36 1.36 0 01-.817 1.744 1.358 1.358 0 01-1.742-.815 1.363 1.363 0 01.815-1.744 1.363 1.363 0 011.744.815M24.908 56.648a1.183 1.183 0 11-2.222.81 1.183 1.183 0 012.222-.81M20.577 64.137a1.183 1.183 0 11-2.226.804 1.183 1.183 0 012.226-.804M57.5 50.367a1.184 1.184 0 11-2.225.81 1.184 1.184 0 012.226-.81M60.061 68.195a1.184 1.184 0 01-2.225.805 1.182 1.182 0 012.225-.805M48.21 46.626a1.36 1.36 0 11-2.557.926 1.362 1.362 0 01.815-1.743 1.363 1.363 0 011.742.817M31.238 56.051a1.357 1.357 0 01-.816 1.744 1.36 1.36 0 11-.928-2.558 1.359 1.359 0 011.744.814M28.19 63.956a1.365 1.365 0 01-.816 1.746 1.362 1.362 0 11.816-1.746M25.808 71.617a1.36 1.36 0 11-2.561.93 1.36 1.36 0 012.56-.93M53.888 71.821a1.362 1.362 0 11-2.56.926 1.362 1.362 0 012.56-.926M58.916 59.483a1.358 1.358 0 01-.813 1.743 1.361 1.361 0 11.813-1.743M51.708 52.973a1.358 1.358 0 01-.813 1.741 1.36 1.36 0 11.814-1.741M41.502 47.045c.29.8-.123 1.679-.922 1.969a1.539 1.539 0 11.922-1.969M38.21 55.666a1.54 1.54 0 01-2.893 1.048 1.54 1.54 0 012.892-1.048M45.112 54.737c.29.8-.122 1.68-.92 1.97a1.54 1.54 0 11-1.05-2.894 1.538 1.538 0 011.97.924M51.888 61.969a1.537 1.537 0 11-2.891 1.05 1.539 1.539 0 012.89-1.05M44.303 63.965a1.539 1.539 0 11-2.889 1.051 1.539 1.539 0 012.89-1.051M36.083 64.553a1.539 1.539 0 11-2.89 1.054 1.539 1.539 0 012.89-1.054M34.735 72.975a1.541 1.541 0 01-.924 1.971 1.537 1.537 0 01-1.97-.921c-.29-.798.122-1.68.921-1.97a1.54 1.54 0 011.973.92M44.551 73.318a1.54 1.54 0 01-2.895 1.049 1.539 1.539 0 112.895-1.049M48.422 26.722s6.491-.844 10.597-2.71c4.106-1.864 13.059-8.765 19.583-11.253 6.523-2.495 11.702-3.49 11.702-3.49s12.733-8.224 15.959-8.585c1.635.118 9.469.44 15.141 1.67 6.24 1.356 12.357 2.347 12.862 2.572.232 1.204-19.73-3.815-32.038.776-10.534 3.927-12.561 13.616-14.615 13.855-2.05.242-2.057-5.671-2.057-5.671s-4.297.298-9.445 2.418c-5.148 2.117-13.04 8.129-16.738 9.721a132.53 132.53 0 01-6.374 2.563l-4.577-1.866zM206.52 38.355c-.636.444-1.203.896-1.616 1.294-3.256 3.148-3.241 7.721-3.241 7.721s6.773 1.322 11.248 3.6c4.478 2.277 9.106 6.012 9.415 9.296.313 3.29-5.612 9.313-8.215 7.89-2.356-1.282 4.515-4.905 4.315-8.232-.194-3.246-4.448-6.94-9.023-8.563-4.91-1.742-11.755-1.528-11.755-1.528s-.448-7.919 4.914-12.48c.353-.302 1.252-1.046 1.252-1.046l2.707 2.048zM195.26 147.262s-7.005-1.61-11.25-4.985c-4.244-3.367-8.028-10.68-8.028-10.68s23.8-13.163 26.202-20.08c2.403-6.91.725-19.52-1.907-25.738-2.632-6.224-8.946-14.255-8.946-14.255s11.52 6.772 19.466 7.162c7.984.394 24.378-3.28 29.896-7.162l3.329 4.31c-5.672 3.445-25.189 6.613-31.902 6.153-6.714-.461-14.546-5.047-14.546-5.047s4.303 5.61 6.016 11.036c1.713 5.418 4.675 20.372 1.92 26.114-3.659 7.62-26.848 18.298-26.848 18.298s3.048 4.935 7.028 8.275c3.98 3.342 9.57 6.6 9.57 6.599"/></g></svg>