<svg width="118" height="118" viewBox="0 0 118 118" xmlns="http://www.w3.org/2000/svg"><defs><linearGradient x1="103.07%" y1="0%" x2="0%" y2="100%" id="b"><stop stop-color="#EEE" offset="0%"/><stop stop-opacity=".35" offset="19.53%"/><stop stop-color="#FFF" stop-opacity=".44" offset="36.16%"/><stop stop-color="#323232" stop-opacity=".43" offset="49.99%"/><stop stop-color="#E1E1E1" stop-opacity=".34" offset="65.05%"/><stop stop-opacity=".45" offset="82.73%"/><stop stop-color="#D8D8D8" offset="100%"/></linearGradient><filter x="-1.7%" y="-.9%" width="103.4%" height="103.4%" filterUnits="objectBoundingBox" id="a"><feOffset dy="1" in="SourceAlpha" result="shadowOffsetOuter1"/><feGaussianBlur stdDeviation=".5" in="shadowOffsetOuter1" result="shadowBlurOuter1"/><feColorMatrix values="0 0 0 0 0 0 0 0 0 0 0 0 0 0 0 0 0 0 0.300344187 0" in="shadowBlurOuter1" result="shadowMatrixOuter1"/><feMerge><feMergeNode in="shadowMatrixOuter1"/><feMergeNode in="SourceGraphic"/></feMerge></filter></defs><g filter="url(#a)" transform="translate(1)" fill="none" fill-rule="evenodd"><path d="M116 58c0 32.032-25.968 58-58 58-32.033 0-58-25.968-58-58C0 25.967 25.967 0 58 0s58 25.967 58 58" fill="#FDD715"/><path d="M113.213 58c0 30.492-24.72 55.212-55.213 55.212-30.493 0-55.212-24.72-55.212-55.212C2.788 27.507 27.508 2.788 58 2.788c30.493 0 55.213 24.72 55.213 55.212" fill="#174F9B"/><path d="M95.343 51.094s12.534 2.677 17.742 5.113l.128 1.793-17.87-6.906zM63.134 66.947c-.705.286-2.443-.37-4.015-1.468-1.582-1.105-2.842-2.949-2.701-3.248.14-.3 2.16.623 3.947 1.024 2.065.463 3.72.486 3.72.486.417 1.06-.247 2.92-.95 3.206zm.594-14.395c.7-2.617 2.155-4.607 2.155-4.607s.702 2.793.422 5.195c-.279 2.403-1.575 5.174-1.966 6.84-.387 1.645-.31 3.004-.31 3.004s-.581-.1-.696-.463c-.212-.67-.304-7.353.395-9.97zM50.18 33.025c-.614.192-3.218-3.217-3.133-3.839.058-.418 1.289-.636 1.976-.467.717.175 1.518.927 1.701 1.435.21.577.07 2.679-.544 2.87zm-5.075-2.077c-.6.06-1.988-1.798-1.77-2.22.24-.459 2.529-.232 2.716.197.187.43-.347 1.961-.946 2.023zm-3.918 2.914c-.426 2.355-.087 4.819-.494 4.81-.407-.006-1.627-2.083-2.257-4.591-.6-2.39-.506-5.688-.075-6.036.77-.622 3.612.182 3.876 1.083.19.646-.606 2.271-1.05 4.734zm-5.145-2.955c-.295.045-.843-.817-1.03-1.554-.217-.854-.114-2.11.2-2.28.519-.282 1.677.17 1.913.736.249.594-.788 3.053-1.083 3.098zm76.451 36.032c-3.456-2.185-6.908-4.08-11.11-6.025-8.062-3.73-14.43-5.708-15.827-5.57-2.09.202-7.382 2.731-8.02 4.183-.505 1.148-.203 6.782-1.13 7.896-1.24 1.488-4.794 2.681-6.18 2.684-1.074.001-1.78-.63-1.78-.63s-1.809.823-2.597.332c-.787-.49-1.384-1.828-.575-4.339.809-2.51 2.638-6.944 3.024-9.857.385-2.913.216-7.509-.695-9.562-.912-2.055-4.955-7.852-7.109-10.12-2.153-2.27-9.017-7.432-10.829-7.996-1.754-.544-5.242.072-7.295-.238-2.053-.308-7.208-1.683-8.21-3.067-.84-1.163-.664-3.667-.004-4.906.66-1.236 2.325-2.534 3.844-3.39 1.551-.872 2.645-1.346 2.817-1.714.159-.34-.128-1.118-.523-1.058-.412.063-1.136 1.3-2.14 2.051-1.001.752-2.203 1.493-2.672 1.496-.533.005-.96-1.038-1.822-.892-.523.09.038 1.097.113 2.067.074.971-.245 1.697-.245 1.697s-.265-1.346-.746-2.059c-.48-.713-1.274-1.154-1.23-1.633.045-.488 1.776-1.753 2.844-1.559.986.18 1.443 1.53 1.443 1.53s.063-1.354-.712-1.961c-.774-.606-2.29.027-2.29.027s.622-.882 1.786-1.341c1.747-.689 4.385-.37 4.385-.37s3.262-2.015 5.595-1.697c2.334.318 4.498 2.361 4.498 2.361s-2.145-2.821-4.697-3.065c-2.624-.25-5.96 1.608-5.96 1.608s-2.573.045-4.29.815c-1.715.771-3.243 2.877-3.399 3.672-.155.797 1.923 2.704 2.283 4.052.198.742-.573 2.5.038 3.978.212.515.885 1.011.885 1.011s-.25.535-.126 1.082c.123.546.485.932.485.932s-.12 1.081.2 2.182c.303 1.037 1.1 2.115 1.605 2.08.505-.035 1.183-1.834 1.183-1.834s-.005 2.408.667 4.897c.645 2.39 2.053 4.948 2.927 4.706.873-.244.444-2.75.794-4.947.353-2.226 1.263-4.672 1.263-4.672s1.319 2.11 2.31 1.787c.73-.237 1.276-1.683 1.276-1.683s2.493 4.124 3.856 3.703c.8-.246.937-2.41.937-2.41s7.43 4.479 9.125 6.302c1.697 1.824 4.814 9.197 4.814 9.197s-1.415 2.214-2.111 4.167c-.697 1.952-.432 12.06-.432 12.06s-1.239.04-2.812-.354c-1.515-.378-3.592-1.362-4.005-.908-.417.46.438 2.43 2.591 4.088 2.155 1.66 4.245 2.12 4.245 2.12s.017.658.444 1.022c.428.363 1.063.28 1.063.28s.163.877.847 1.319c.918.591 3.169.07 3.169.07s.774.608 2.049.553c1.388-.061 5.802-1.329 7.13-3.068 1.162-1.52.208-6.766.904-7.904.695-1.14 4.462-2.987 6.769-3.048 2.307-.06 9.06 1.741 16.103 4.955 4.048 1.847 7.488 4.115 10.979 6.51l.283-1.595z" fill="#FEFEFE"/><path d="M71.387 46.325s3.262 3.762 3.65 5.52c.387 1.757-1.07 4.485-1.357 6.036-.287 1.553.204 3.492.762 3.62.763.173 2.594-1.94 2.594-1.94s-1.725 1.026-2.208.8c-.48-.226-.611-1.826-.265-2.8.345-.974 1.732-4.175 1.332-5.827-.4-1.654-4.508-5.408-4.508-5.409M68.527 46.013s1.64 4.8 1.719 6.67c.079 1.87-1.278 6.808-1.278 6.808s2.31-4.237 2.201-6.743c-.096-2.182-2.642-6.735-2.642-6.735M66.167 42.124s-2.536-3.827-4.82-6.543c-2.285-2.719-5.949-5.935-7.657-7.064-1.708-1.128-3.05-1.94-2.69-2.321.362-.381 2.35.584 3.666 1.568 1.44 1.076 5.248 4.69 7.246 7.31 1.901 2.493 4.255 7.05 4.255 7.05M67.966 45.018s-1.64-1.903-1.17-2.124c.47-.22 1.17 2.124 1.17 2.124M54.55 13.631c-1.873.643-2.673 2.412-2.659 2.9.012.404 1.253 3.414 3.056 5.127 1.906 1.807 5.205 3.467 6.832 5.474 1.627 2.008 3.125 5.31 4.078 7.662.952 2.351 1.417 4.182 1.417 4.182s-.194.767.17 1.44c.45.835 2.858 2.738 4.678 3.625 1.82.889 4.482 1.241 4.482 1.241s-2.563-.854-4.27-1.982c-1.709-1.13-4.063-3.638-4.439-4.4-.376-.763-1.529-3.94-2.465-6.25-.868-2.135-2.495-5.837-3.125-6.607-.63-.772-5.792-3.844-7.258-5.234-1.601-1.52-2.61-3.875-2.61-3.875s.427-.158.61-.521c.193-.383.294-1.122.595-1.664.329-.593.909-1.118.909-1.118M67.64 8.848s1.84 1.81 1.755 3.208c-.073 1.212-2.182 2.344-2.523 2.32-.341-.024-1.014-.58-.902-.856.176-.434 2.31-.764 2.505-1.759.194-.994-.835-2.913-.835-2.913M50.135 18.375s-1.221-2.144-2.568-3.209c-1.347-1.063-4.367-.93-4.528-1.167-.16-.238.506-.849.955-.938.464-.092 2.715.345 3.929 1.458 1.33 1.219 2.212 3.856 2.212 3.856M56.525 11.327s1.287-1.65 2.745-1.81c.745-.081 1.05.248 1.05.248s1.346-.428 2.28-.235c1.04.214 1.7 1.12 1.7 1.12s-1.605-.453-3.33-.011c-1.725.44-2.892 1.975-3.556 2.324-.684.36-2.349.557-2.562-.031-.166-.458.822-.89.822-.89l.85-.715zM56.593 10.6s.37-1.429 1.264-2.122c.894-.695 2.477-.715 2.684-.346.208.369-1.134.338-2.141.925-1.007.587-1.807 1.542-1.807 1.542M40.35 16.878a.4.4 0 11-.75.272.4.4 0 01.75-.272M37.857 19.279a.347.347 0 11-.653.238.347.347 0 01.653-.238M36.585 21.478a.347.347 0 11-.654.236.347.347 0 01.654-.236M47.428 17.434a.348.348 0 11-.655.238.348.348 0 01.655-.238M48.18 22.67a.347.347 0 11-.652.238.347.347 0 01.652-.238M44.7 16.336a.399.399 0 11-.75.273.399.399 0 01.75-.273M39.715 19.104a.4.4 0 11-.752.274.4.4 0 01.752-.274M38.82 21.425a.4.4 0 01-.751.273.4.4 0 01.751-.273M38.12 23.675a.4.4 0 11-.753.271.4.4 0 01.754-.271M46.367 23.735a.4.4 0 11-.752.272.4.4 0 01.752-.272M47.844 20.111a.399.399 0 11-.75.274.399.399 0 01.75-.274M45.727 18.2a.399.399 0 11-.75.273.399.399 0 01.75-.273M42.73 16.459a.45.45 0 11-.848.308.45.45 0 01.848-.308M41.763 18.99a.452.452 0 11-.85.306.452.452 0 01.85-.305M43.79 18.718a.452.452 0 11-.849.308.452.452 0 01.849-.308M45.78 20.841a.451.451 0 11-.848.31.451.451 0 01.848-.31M43.552 21.428a.452.452 0 11-.85.308.452.452 0 01.85-.308M41.138 21.6a.452.452 0 11-.849.31.452.452 0 01.85-.31M40.742 24.074a.453.453 0 11-.851.306.453.453 0 01.851-.306M43.625 24.174a.453.453 0 01-.85.308.452.452 0 11.85-.308M44.762 10.49s1.906-.247 3.112-.795c1.206-.548 3.835-2.574 5.751-3.305 1.916-.733 3.436-1.025 3.436-1.025s3.74-2.415 4.687-2.521c.48.035 2.78.129 4.447.49 1.832.399 3.629.69 3.777.756.068.353-5.795-1.12-9.409.227-3.093 1.154-3.689 4-4.292 4.07-.602.07-.604-1.666-.604-1.666s-1.262.088-2.774.71c-1.511.622-3.829 2.387-4.915 2.855-1.088.468-1.872.753-1.872.753l-1.344-.548zM91.19 13.907a4 4 0 00-.474.38c-.956.924-.952 2.267-.952 2.267s1.99.388 3.304 1.057c1.315.67 2.674 1.766 2.765 2.73.091.967-1.649 2.735-2.413 2.318-.692-.377 1.326-1.441 1.267-2.418-.057-.953-1.306-2.038-2.65-2.515-1.442-.511-3.452-.449-3.452-.449s-.131-2.325 1.443-3.665l.368-.307.795.602zM87.884 45.89s-2.057-.473-3.304-1.464c-1.246-.989-2.358-3.137-2.358-3.137s6.99-3.865 7.695-5.897c.706-2.029.213-5.732-.56-7.558-.773-1.828-2.627-4.187-2.627-4.187s3.383 1.99 5.717 2.104c2.344.116 7.159-.963 8.78-2.104l.977 1.266c-1.666 1.012-7.397 1.942-9.369 1.807-1.971-.135-4.272-1.482-4.272-1.482s1.264 1.648 1.767 3.241c.503 1.591 1.373 5.983.564 7.669-1.074 2.238-7.885 5.373-7.885 5.373s.896 1.45 2.065 2.43c1.168.982 2.81 1.939 2.81 1.939M31.813 87.889h3.15v-4.052h2.948v4.052h3.15V77.667h-3.15v3.55h-2.949v-3.55h-3.15zM51.899 81.475c-.272-2.577-1.804-4.037-4.625-4.051-3.15 0-5.182 2.147-5.182 5.354 0 3.02 1.875 5.354 5.182 5.354 2.993 0 4.668-2.19 4.668-4.252h-3.093c-.2.974-.6 1.704-1.66 1.704-1.475 0-1.947-1.432-1.947-2.806s.472-2.806 1.947-2.806c1.303 0 1.574 1.13 1.646 1.503h3.064zM57.468 87.889h7.674v-2.62h-4.524v-7.602h-3.15zM66.2 87.889h8.62v-2.62h-5.47v-1.274h4.825V81.56H69.35v-1.274h5.312v-2.62H66.2zM84.698 77.667h-3.236l-1.646 6.199h-.029l-1.675-6.2h-3.178l3.05 10.223h3.521zM33.067 92.505h2.275c.994 0 1.82.156 1.82 1.353 0 .91-.527 1.365-1.82 1.365h-2.275v-2.718zm-1.137 7.59h4.13c1.688 0 2.598-1.21 2.598-2.454 0-1.054-.574-1.832-1.628-2.06v-.023c.802-.323 1.27-1.006 1.27-1.916 0-.85-.444-1.448-1.007-1.783-.502-.312-1.52-.312-2.262-.312h-3.1v8.548zm1.137-3.915h2.598c.958 0 1.856.312 1.856 1.425 0 .945-.61 1.532-1.604 1.532h-2.85V96.18zM39.891 100.095h5.938v-.958h-4.8V96.18h4.44v-.957h-4.44v-2.718h4.764v-.958h-5.902zM46.954 100.095h1.077v-6.86h.024l4.466 6.86h1.245v-8.548h-1.078v6.932h-.024l-4.501-6.932h-1.21zM55.37 100.095h5.938v-.958h-4.801V96.18h4.442v-.957h-4.442v-2.718h4.765v-.958H55.37zM68.466 94.05c-.06-1.88-1.4-2.706-3.149-2.706-1.568 0-3.1.778-3.1 2.502 0 3.137 5.47 1.592 5.47 3.938 0 1.233-1.137 1.557-2.166 1.557-1.293 0-2.49-.623-2.49-2.06h-1.077c0 2.072 1.616 3.017 3.531 3.017 1.556 0 3.34-.73 3.34-2.55 0-3.364-5.47-1.88-5.47-3.986 0-1.113.945-1.46 1.915-1.46 1.185 0 1.987.514 2.119 1.747h1.077zm-1.257-4.993h-.922l-.838 1.15-.826-1.15h-1.005l1.245 1.712h1.113l1.233-1.712zM70.62 95.821c0-1.724.875-3.52 2.958-3.52s2.957 1.796 2.957 3.52-.874 3.52-2.957 3.52c-2.083 0-2.957-1.796-2.957-3.52zm-1.137 0c0 2.334 1.377 4.477 4.095 4.477 2.717 0 4.094-2.143 4.094-4.477 0-2.335-1.377-4.477-4.094-4.477-2.718 0-4.095 2.142-4.095 4.477zM85.225 91.547H84.04l-2.466 7.41h-.024l-2.442-7.41h-1.233l3.017 8.548h1.293z" fill="#FEFEFE"/><path fill="#FDD715" d="M28.779 65.52l-7.687 3.672 3.643-7.7-8.031-2.84 8.021-2.87-3.671-7.686 7.7 3.643 2.84-8.031 2.869 8.021 7.687-3.671-3.644 7.7 8.032 2.84-8.021 2.868 3.67 7.688-7.7-3.644-2.84 8.031z"/><circle fill="url(#b)" opacity=".8" style="mix-blend-mode:overlay" cx="58" cy="58" r="58"/></g></svg>