<svg width="24" height="24" viewBox="0 0 24 24" xmlns="http://www.w3.org/2000/svg"><defs><radialGradient cx="14.93%" cy="100.35%" fx="14.93%" fy="100.35%" r="127.77%" id="a"><stop stop-color="#174f9b" offset="0%"/><stop stop-color="#174f9b" offset="25.59%"/><stop stop-color="#174f9b" offset="59.9%"/><stop stop-color="#174f9b" offset="100%"/></radialGradient></defs><g fill="none" fill-rule="evenodd"><path d="M2 2h20v20H2z"/><path d="M16.538 4.662a1.2 1.2 0 11-2.4 0 1.2 1.2 0 012.4 0zM10 13.333a3.333 3.333 0 110-6.666 3.333 3.333 0 010 6.666zm0-8.468a5.135 5.135 0 100 10.27 5.135 5.135 0 000-10.27zm0-3.063c2.67 0 2.986.01 4.04.058.976.045 1.505.207 1.858.345.466.18.8.398 1.15.748.35.35.566.683.748 1.15.137.352.3.881.344 1.856.048 1.055.058 1.371.058 4.041 0 2.67-.01 2.987-.058 4.041-.045.975-.207 1.505-.344 1.857-.182.467-.398.8-.748 1.15-.35.35-.683.567-1.15.748-.353.137-.882.3-1.857.344-1.055.048-1.37.059-4.041.059-2.67 0-2.987-.01-4.04-.059-.976-.044-1.505-.207-1.858-.344a3.099 3.099 0 01-1.15-.748 3.098 3.098 0 01-.748-1.15c-.137-.352-.3-.882-.344-1.857-.048-1.054-.058-1.37-.058-4.04s.01-2.987.058-4.042c.044-.975.207-1.504.344-1.856.182-.467.398-.8.748-1.15.35-.35.683-.567 1.15-.748.353-.137.882-.3 1.857-.345 1.055-.048 1.37-.058 4.041-.058zM10 0C7.284 0 6.944.012 5.877.06 4.813.11 4.086.278 3.45.525a4.9 4.9 0 00-1.772 1.153A4.9 4.9 0 00.525 3.45C.278 4.086.109 4.813.06 5.877.012 6.944 0 7.284 0 10s.012 3.056.06 4.123c.049 1.064.218 1.791.465 2.427a4.9 4.9 0 001.153 1.772 4.902 4.902 0 001.772 1.153c.636.247 1.363.416 2.427.465 1.067.048 1.407.06 4.123.06s3.056-.012 4.123-.06c1.064-.049 1.791-.218 2.427-.465a4.902 4.902 0 001.772-1.153 4.902 4.902 0 001.153-1.772c.247-.636.416-1.363.465-2.427.048-1.067.06-1.407.06-4.123s-.012-3.056-.06-4.123c-.049-1.064-.218-1.791-.465-2.427a4.902 4.902 0 00-1.153-1.772A4.902 4.902 0 0016.55.525C15.914.278 15.187.109 14.123.06 13.056.012 12.716 0 10 0z" fill="url(#a)" transform="translate(2 2)"/></g></svg>