<?xml version="1.0" encoding="UTF-8"?>
<svg width="507px" height="418px" viewBox="0 0 507 418" version="1.1" xmlns="http://www.w3.org/2000/svg" xmlns:xlink="http://www.w3.org/1999/xlink">
    <title>asset / lev</title>
    <g id="✅-ToCode" stroke="none" stroke-width="1" fill="none" fill-rule="evenodd">
        <g id="Profil" transform="translate(-1079, -63)" fill="#0E2F5D">
            <g id="336318416_708548491022394_1649964854184873198_n" transform="translate(960, 82)">
                <g id="Group" transform="translate(119.4527, -19.5698)">
                    <path d="M396.087752,296.023368 C396.087752,296.023368 472.948597,312.448222 504.881459,327.391793 L505.662384,338.39242 L396.087752,296.023368 Z" id="Fill-3"></path>
                    <path d="M198.595084,393.282266 C194.270313,395.039721 183.615825,391.012577 173.976051,384.276688 C164.275076,377.497627 156.549057,366.185313 157.411074,364.348864 C158.270642,362.505374 170.652223,368.171176 181.612104,370.630694 C194.276433,373.473239 204.430296,373.612856 204.430296,373.612856 C206.978707,380.123093 202.913123,391.527261 198.595084,393.282266 Z M202.237463,304.967098 C206.524289,288.909962 215.448318,276.706367 215.448318,276.706367 C215.448318,276.706367 219.753198,293.842164 218.039263,308.575698 C216.328695,323.319642 208.377763,340.31919 205.984802,350.53876 C203.60959,360.630041 204.082368,368.972134 204.082368,368.972134 C204.082368,368.972134 200.518326,368.36223 199.812066,366.130813 C198.51185,362.019471 197.950637,321.017192 202.237463,304.967098 Z M119.157369,185.16532 C115.390752,186.341958 99.4234029,165.429164 99.9457537,161.614507 C100.300414,159.050888 107.847725,157.710753 112.060804,158.746243 C116.455956,159.821535 121.367339,164.437151 122.49405,167.550356 C123.778047,171.093128 122.926129,183.987458 119.157369,185.16532 Z M88.0403171,172.422548 C84.3609111,172.797615 75.8453996,161.393447 77.1909042,158.809621 C78.657587,155.989733 92.6897594,157.381 93.8381967,160.01259 C94.983268,162.651834 91.7139089,172.043501 88.0403171,172.422548 Z M64.0112622,190.301436 C61.4028742,204.752981 63.4785072,219.866481 60.9830351,219.817916 C58.4909292,219.77279 51.0112451,207.031855 47.14793,191.64494 C43.468218,176.984276 44.0459558,156.74752 46.6889223,154.61255 C51.4130299,150.798811 68.8342094,155.73285 70.4517527,161.25628 C71.6157963,165.220045 66.7365441,175.191305 64.0112622,190.301436 Z M32.4651906,172.172708 C30.6548641,172.449492 27.2952335,167.16243 26.1501622,162.639587 C24.8230179,157.397534 25.4518585,149.689533 27.3732648,148.649144 C30.5584725,146.919245 37.6590161,149.688002 39.1076446,153.164027 C40.6309382,156.807225 34.2736811,171.896842 32.4651906,172.172708 Z M501.246117,393.23634 C480.050058,379.832225 458.88766,368.205774 433.122026,356.271308 C383.683527,333.390103 344.636045,321.254173 336.070348,322.092485 C323.262808,323.334338 290.807596,338.854134 286.895626,347.762348 C283.798854,354.801966 285.650797,389.369633 279.969199,396.201968 C272.366195,405.331242 250.57159,412.653766 242.075356,412.672137 C235.487371,412.68071 231.157093,408.807267 231.157093,408.807267 C231.157093,408.807267 220.068078,413.856735 215.232278,410.844261 C210.406883,407.831788 206.751651,399.630842 211.706181,384.224025 C216.66683,368.825475 227.884367,341.618605 230.249787,323.751045 C232.613371,305.87828 231.573566,277.681846 225.987441,265.082671 C220.398563,252.478903 195.605107,216.907894 182.402209,202.994608 C169.195944,189.067237 127.112279,157.397534 115.999702,153.939879 C105.246375,150.599184 83.8593686,154.378937 71.2697045,152.480947 C58.6818764,150.586937 27.0697077,142.154522 20.9318563,133.663933 C15.7726094,126.528788 16.8558676,111.164224 20.9033978,103.565834 C24.949704,95.9769362 35.160178,88.0181764 44.475281,82.7690813 C53.9831672,77.4125181 60.6889642,74.5065941 61.743764,72.2519081 C62.7186964,70.1585773 60.9588607,65.3892612 58.540502,65.7582043 C56.0128994,66.1418438 51.5700105,73.7344162 45.4199189,78.3429894 C39.2768654,82.95738 31.9064252,87.4992067 29.0299768,87.5200267 C25.7652077,87.5488073 23.1482516,81.1530801 17.8620126,82.0495658 C14.6517125,82.5939481 18.0912104,88.7741269 18.5517482,94.7252854 C19.0070839,100.686242 17.0510989,105.139277 17.0510989,105.139277 C17.0510989,105.139277 15.4237635,96.8829133 12.4744858,92.507953 C9.52979818,88.1345236 4.66339819,85.4276144 4.9314587,82.4889295 C5.21175942,79.4945204 15.8255483,71.7338569 22.3752826,72.9264156 C28.4176604,74.0277336 31.2203617,82.3049172 31.2203617,82.3049172 C31.2203617,82.3049172 31.6071522,74.00079 26.8588702,70.2764554 C22.1099762,66.5609999 12.8092554,70.4476082 12.8092554,70.4476082 C12.8092554,70.4476082 16.6303418,65.0325653 23.7682181,62.2172696 C34.4765625,57.9914173 50.6529131,59.9484995 50.6529131,59.9484995 C50.6529131,59.9484995 70.6564701,47.5869172 84.9609872,49.538182 C99.2716243,51.488222 112.541538,64.022488 112.541538,64.022488 C112.541538,64.022488 99.3906603,46.7121701 83.7388026,45.2183335 C67.6508875,43.6874495 47.1910768,55.0812068 47.1910768,55.0812068 C47.1910768,55.0812068 31.420795,55.3573783 20.8945237,60.0829111 C10.3710064,64.8130365 1.00296451,77.732779 0.0506764626,82.6138496 C-0.900999573,87.5010438 11.8395251,99.202815 14.0464343,107.472344 C15.2624988,112.025193 10.5359431,122.810577 14.2796102,131.879534 C15.5825802,135.037748 19.7044696,138.08237 19.7044696,138.08237 C19.7044696,138.08237 18.1707718,141.359687 18.9308886,144.715691 C19.6888634,148.064959 21.9104608,150.434461 21.9104608,150.434461 C21.9110728,150.434461 21.1668683,157.069312 23.1360114,163.821735 C24.9888727,170.182558 29.8800591,176.800264 32.9768313,176.583491 C36.0736034,176.366411 40.2291535,165.330268 40.2291535,165.330268 C40.2300715,165.330268 40.1973289,180.107892 44.3183004,195.373561 C48.272805,210.041879 56.9079645,225.73191 62.2661148,224.246034 C67.6172269,222.754034 64.9880306,207.37661 67.1340448,193.899626 C69.3014793,180.241691 74.8781173,165.23566 74.8781173,165.23566 C74.8781173,165.23566 82.9661396,178.174998 89.04585,176.196177 C93.5233174,174.740919 96.8673418,165.871589 96.8673418,165.871589 C96.8673418,165.871589 112.155359,191.174652 120.51389,188.589908 C125.418235,187.079844 126.260361,173.806161 126.260361,173.806161 C126.260361,173.806161 171.811065,201.28308 182.21218,212.471086 C192.615131,223.657562 211.726071,268.894266 211.726071,268.894266 C211.726071,268.894266 203.052049,282.47535 198.783277,294.460335 C194.509609,306.432154 196.131742,368.450715 196.131742,368.450715 C196.131742,368.450715 188.539142,368.698106 178.892636,366.279922 C169.601707,363.955733 156.869751,357.918539 154.334498,360.706279 C151.774765,363.528004 157.019999,375.616171 170.224734,385.787058 C183.435282,395.966518 196.248942,398.795898 196.248942,398.795898 C196.250472,398.795898 196.35635,402.833451 198.97606,405.063031 C201.596382,407.288324 205.492134,406.778233 205.492134,406.778233 C205.492134,406.778233 206.491241,412.16174 210.687796,414.871405 C216.31217,418.502662 230.116369,415.306176 230.116369,415.306176 C230.116369,415.306176 234.862815,419.031123 242.678187,418.695247 C251.19431,418.32018 278.256182,410.542983 286.398673,399.874865 C293.526145,390.547495 287.676245,358.363108 291.940427,351.378909 C296.207363,344.382769 319.302184,333.056677 333.448802,332.680998 C347.592972,332.308687 389.006792,343.364731 432.187792,363.082517 C457.00787,374.415652 478.103559,388.328938 499.505254,403.015627 L501.246117,393.23634 Z" id="Fill-4"></path>
                    <path d="M249.200993,266.767256 C249.200993,266.767256 269.202102,289.846557 271.579456,300.632859 C273.951914,311.411201 265.013197,328.144376 263.257645,337.661882 C261.501176,347.188879 264.507676,359.088441 267.93371,359.869804 C272.607327,360.93285 283.835268,347.969018 283.835268,347.969018 C283.835268,347.969018 273.257282,354.266462 270.300966,352.87795 C267.352606,351.494338 266.549343,341.67586 268.671183,335.69439 C270.788432,329.722105 279.29354,310.087599 276.84305,299.947942 C274.391643,289.801243 249.199463,266.769705 249.200993,266.767256" id="Fill-5"></path>
                    <path d="M231.659247,264.849058 C231.659247,264.849058 241.719778,294.302348 242.201125,305.767138 C242.686755,317.239889 234.368311,347.538533 234.368311,347.538533 C234.368311,347.538533 248.531453,321.547491 247.864362,306.169148 C247.271936,292.786773 231.659247,264.849058 231.659247,264.849058" id="Fill-6"></path>
                    <path d="M217.190711,240.9887 C217.190711,240.9887 201.641671,217.51443 187.635509,200.846471 C173.626593,184.169633 151.159695,164.437151 140.68728,157.508676 C130.213336,150.587855 121.979655,145.60544 124.193296,143.269005 C126.409692,140.929202 138.601243,146.853417 146.670905,152.888774 C155.497624,159.49362 178.846735,181.661433 191.10163,197.743676 C202.757978,213.031696 217.190711,240.9887 217.190711,240.9887" id="Fill-7"></path>
                    <path d="M228.224339,258.746036 C228.224339,258.746036 218.170234,247.07182 221.047294,245.716988 C223.925579,244.366442 228.224339,258.748485 228.224339,258.746036" id="Fill-8"></path>
                    <path d="M145.963727,66.181953 C134.475681,70.1255102 129.566135,80.9803964 129.656971,83.9763364 C129.730154,86.4499388 137.339278,104.91883 148.395244,115.425593 C160.081887,126.516541 180.310052,136.701513 190.286126,149.013494 C200.262506,161.330069 209.446639,181.591318 215.287665,196.019288 C221.128998,210.44542 223.976682,221.677823 223.976682,221.677823 C223.978518,221.677823 222.790912,226.381923 225.019241,230.50888 C227.780326,235.633667 242.544462,247.308801 253.703858,252.75385 C264.868457,258.205327 281.185263,260.367242 281.185263,260.367242 C281.187099,260.367242 265.473735,255.127638 255.00591,248.202838 C244.529212,241.271607 230.094643,225.887141 227.787976,221.213659 C225.481615,216.532828 218.413814,197.033039 212.669791,182.870525 C207.351727,169.76677 197.370451,147.056412 193.509584,142.330573 C189.651165,137.595549 157.992178,118.748836 149.005112,110.216607 C139.188467,100.89536 132.999513,86.4456523 132.999513,86.4456523 C132.999513,86.4456523 135.622589,85.478746 136.74318,83.2491665 C137.926502,80.8989534 138.545856,76.3647811 140.392291,73.0390887 C142.408253,69.4044638 145.963727,66.181953 145.963727,66.181953" id="Fill-9"></path>
                    <path d="M226.223371,36.8379682 C226.223371,36.8379682 237.502415,47.9393267 236.984349,56.5193193 C236.539417,63.9520673 223.607027,70.8961572 221.513952,70.74858 C219.420877,70.6028398 215.296539,67.1990723 215.982603,65.497954 C217.061577,62.8394208 230.151866,60.8155922 231.343756,54.7107329 C232.531056,48.6110786 226.221535,36.8379682 226.223371,36.8379682" id="Fill-10"></path>
                    <path d="M118.887473,95.2886507 C118.887473,95.2886507 111.397385,82.1303965 103.138611,75.6011761 C94.8783083,69.0744052 76.3631603,69.8922035 75.3778237,68.438476 C74.3949351,66.9795436 78.4770439,63.2319395 81.2295603,62.6866386 C84.0744902,62.1208239 97.8768528,64.7992585 105.322876,71.6312877 C113.473936,79.1075129 118.887473,95.2886507 118.887473,95.2886507" id="Fill-11"></path>
                    <path d="M158.065925,52.0436268 C158.065925,52.0436268 165.960246,41.9229525 174.899881,40.9450238 C179.469456,40.4432001 181.341289,42.4636608 181.341289,42.4636608 C181.341289,42.4621299 189.592412,39.8339082 195.324195,41.0203433 C201.692774,42.3362912 205.747954,47.8967681 205.747954,47.8967681 C205.747954,47.8967681 195.904381,45.1133148 185.322722,47.822061 C174.744736,50.5292763 167.590335,59.944213 163.518631,62.0819394 C159.328196,64.2864124 149.117722,65.497954 147.808938,61.8908851 C146.791471,59.0841623 152.853739,56.4299156 152.853739,56.4299156 L158.065925,52.0436268 Z" id="Fill-12"></path>
                    <path d="M158.486682,47.5807937 C158.486682,47.5807937 160.756016,38.8195445 166.237181,34.5658301 C171.719263,30.3053799 181.425441,30.1819907 182.695362,32.4464743 C183.971403,34.7048344 175.738029,34.5146986 169.565293,38.1171749 C163.391027,41.7217944 158.486682,47.5807937 158.486682,47.5807937" id="Fill-13"></path>
                    <path d="M58.8881238,86.0993664 C59.3498856,87.3761236 58.6913625,88.7802504 57.4180751,89.2410465 C56.1499897,89.7027611 54.741142,89.0502984 54.2806042,87.7735411 C53.8206785,86.5010703 54.4782835,85.0917385 55.7482049,84.6309424 C57.0199624,84.1707587 58.4275861,84.8287326 58.8881238,86.0993664" id="Fill-14"></path>
                    <path d="M43.5991882,100.831982 C44.002503,101.942791 43.4308854,103.162293 42.3222287,103.565834 C41.2190801,103.965089 39.9978136,103.392232 39.5941928,102.285709 C39.195468,101.179186 39.7652496,99.9587655 40.8687042,99.5570615 C41.9770549,99.1559699 43.2010755,99.7297453 43.5991882,100.831982" id="Fill-15"></path>
                    <path d="M35.7994228,114.325193 C36.1993716,115.429267 35.6277539,116.654587 34.5190972,117.05476 C33.4131946,117.45677 32.190092,116.882994 31.7910613,115.781676 C31.3877465,114.670561 31.9593641,113.450446 33.0671028,113.047824 C34.1754535,112.646732 35.396108,113.215915 35.7994228,114.325193" id="Fill-16"></path>
                    <path d="M102.288529,89.5162995 C102.688478,90.6261904 102.11686,91.8518161 101.010958,92.2519892 C99.908421,92.6536932 98.6834824,92.0817549 98.2810856,90.9724763 C97.8796068,89.8616669 98.4527545,88.6406338 99.5562091,88.2395422 C100.664866,87.8393691 101.885214,88.4097765 102.288529,89.5162995" id="Fill-17"></path>
                    <path d="M106.899721,121.636389 C107.298752,122.743831 106.73509,123.966701 105.625515,124.366874 C104.517777,124.768578 103.294674,124.19664 102.893195,123.087667 C102.493247,121.983594 103.064864,120.761642 104.171685,120.360551 C105.28126,119.960378 106.498242,120.534153 106.899721,121.636389" id="Fill-18"></path>
                    <path d="M85.5595333,82.7752048 C86.020071,84.0458385 85.367056,85.4536395 84.0952986,85.9125985 C82.8195631,86.3761502 81.4177535,85.7166454 80.9553797,84.443256 C80.4948419,83.1753779 81.1496929,81.7657399 82.4220624,81.3024944 C83.6956558,80.8450662 85.0989955,81.5030402 85.5595333,82.7752048" id="Fill-19"></path>
                    <path d="M54.9969623,99.7566888 C55.4593361,101.034977 54.8063211,102.436654 53.5284435,102.898369 C52.2585221,103.362839 50.8533465,102.705784 50.3885246,101.430864 C49.9295169,100.158393 50.588958,98.7481424 51.8570434,98.2907143 C53.1330849,97.8265503 54.5382606,98.4860551 54.9969623,99.7566888" id="Fill-20"></path>
                    <path d="M49.5081478,113.998809 C49.9686856,115.272198 49.3110805,116.68153 48.0396291,117.144163 C46.7678716,117.603428 45.3617779,116.943617 44.8994041,115.672984 C44.4370304,114.398064 45.0980015,112.994855 46.3679229,112.531304 C47.6396803,112.070507 49.044856,112.723889 49.5081478,113.998809" id="Fill-21"></path>
                    <path d="M45.2185675,127.80279 C45.6775753,129.074342 45.0184402,130.485511 43.7466827,130.944776 C42.4785974,131.405573 41.0697496,130.748517 40.6101299,129.476965 C40.145002,128.200514 40.8068912,126.798836 42.0768126,126.333448 C43.34857,125.872652 44.7555817,126.528788 45.2185675,127.80279" id="Fill-22"></path>
                    <path d="M95.7837775,128.169896 C96.2427853,129.438999 95.5870162,130.850168 94.3152588,131.309127 C93.0435014,131.769311 91.6367957,131.113174 91.1753399,129.839784 C90.7129661,128.563946 91.3739372,127.161656 92.6438586,126.699023 C93.91378,126.237308 95.3204857,126.894976 95.7837775,128.169896" id="Fill-23"></path>
                    <path d="M104.83694,105.939623 C105.299314,107.21638 104.644463,108.619589 103.372705,109.080385 C102.0985,109.545774 100.696078,108.8878 100.232786,107.612879 C99.7740848,106.340409 100.4271,104.931077 101.701305,104.471812 C102.973063,104.010097 104.376402,104.668071 104.83694,105.939623" id="Fill-24"></path>
                    <path d="M91.8580374,94.2106022 C92.3201052,95.4839915 91.6637241,96.8890369 90.3928847,97.3483021 C89.1177612,97.8090982 87.7159516,97.1554107 87.2554138,95.8789596 C86.79304,94.6064888 87.4478911,93.202362 88.7239326,92.7369733 C89.993854,92.2761772 91.3971936,92.9384376 91.8580374,94.2106022" id="Fill-25"></path>
                    <path d="M73.4790617,83.5302368 C74.0014125,84.9701863 73.258738,86.5549574 71.8189837,87.0772951 C70.3841256,87.5999389 68.7932047,86.8577663 68.272996,85.4172044 C67.7524812,83.979092 68.4957677,82.3900344 69.9321559,81.8683091 C71.3703802,81.3475024 72.9576289,82.0887564 73.4790617,83.5302368" id="Fill-26"></path>
                    <path d="M67.5502118,99.0631984 C68.0740926,100.500392 67.3308061,102.088531 65.8925819,102.609338 C64.4552757,103.131982 62.8600708,102.389809 62.339862,100.950778 C61.8193472,99.5117474 62.5669178,97.9217712 64.0042241,97.4012707 C65.4424483,96.8795454 67.029697,97.6207994 67.5502118,99.0631984" id="Fill-27"></path>
                    <path d="M79.9804472,97.3890236 C80.500962,98.8295855 79.7610415,100.416194 78.3218993,100.938837 C76.881839,101.459338 75.2903062,100.717472 74.7697914,99.2784407 C74.2477467,97.8360417 74.9934812,96.2442285 76.4326235,95.7234218 C77.8690117,95.2044521 79.4580964,95.9429506 79.9804472,97.3890236" id="Fill-28"></path>
                    <path d="M92.1814848,110.418684 C92.7035296,111.863838 91.9636092,113.450446 90.5238549,113.971865 C89.0847126,114.492672 87.4974639,113.751418 86.9751131,112.309938 C86.4549043,110.873662 87.1954368,109.280931 88.633661,108.759512 C90.0737213,108.236868 91.6628061,108.984245 92.1814848,110.418684" id="Fill-29"></path>
                    <path d="M78.5238627,114.015343 C79.0443775,115.454373 78.304457,117.047718 76.8656208,117.569443 C75.4289266,118.091168 73.8383118,117.345628 73.317797,115.906597 C72.7972822,114.466647 73.5405687,112.87759 74.9769569,112.357701 C76.4160992,111.833527 78.0018179,112.57723 78.5238627,114.015343" id="Fill-30"></path>
                    <path d="M63.7223933,115.07502 C64.2444381,116.519256 63.5045176,118.108314 62.0656814,118.630039 C60.6292932,119.150846 59.0356183,118.411429 58.5135735,116.964437 C57.9912227,115.527244 58.7372633,113.937267 60.1764056,113.41493 C61.6161598,112.895042 63.2018785,113.635989 63.7223933,115.07502" id="Fill-31"></path>
                    <path d="M61.2945484,130.24853 C61.8150632,131.686643 61.0671866,133.279375 59.6298803,133.800181 C58.1916561,134.32007 56.6044074,133.580653 56.0838926,132.139785 C55.5600118,130.702591 56.3032983,129.112614 57.7415225,128.591808 C59.1788287,128.070082 60.7706676,128.809806 61.2945484,130.24853" id="Fill-32"></path>
                    <path d="M78.9706302,130.866701 C79.491145,132.30114 78.7417384,133.892034 77.3068802,134.416209 C75.868044,134.937016 74.2795712,134.191475 73.7575264,132.756118 C73.2360936,131.31525 73.9796861,129.72803 75.4169924,129.205386 C76.8552166,128.683048 78.4467494,129.426752 78.9706302,130.866701" id="Fill-33"></path>
                    <path d="M85.9405097,46.9142468 C85.9405097,46.9142468 97.6296006,45.3937728 105.022685,42.0316453 C112.416382,38.6719673 128.538263,26.2390458 140.286719,21.7556989 C152.032421,17.2607173 161.357928,15.4677459 161.357928,15.4677459 C161.357928,15.4677459 184.287201,0.651544236 190.095485,0 C193.039254,0.213405232 207.146092,0.792385566 217.36085,3.0106365 C228.597359,5.45300886 239.611709,7.23832579 240.52085,7.6433977 C240.938853,9.81235418 204.99151,0.768809952 182.829086,9.04078863 C163.860439,16.1159222 160.211021,33.5738173 156.512643,34.0043019 C152.820691,34.4399915 152.808756,23.7865696 152.808756,23.7865696 C152.808756,23.7865696 145.071416,24.3245223 135.800378,28.1434655 C126.531176,31.9568976 112.320296,42.7891267 105.660094,45.6586157 C98.9897935,48.5277985 94.1824525,50.2757619 94.1824525,50.2757619 L85.9405097,46.9142468 Z" id="Fill-34"></path>
                    <path d="M370.630571,67.8732736 C369.483969,68.6727013 368.464054,69.4877439 367.720462,70.2054223 C361.855873,75.8770414 361.882801,84.1162592 361.882801,84.1162592 C361.882801,84.1162592 374.080473,86.4977024 382.137894,90.6001654 C390.201436,94.7044654 398.534569,101.434232 399.092416,107.350792 C399.655466,113.279293 388.985984,124.130812 384.298597,121.566887 C380.057059,119.255865 392.429766,112.728175 392.068986,106.734458 C391.72014,100.885869 384.059913,94.2314222 375.821336,91.3068214 C366.979011,88.1675907 354.652817,88.5527611 354.652817,88.5527611 C354.652817,88.5527611 353.846188,74.2855344 363.501568,66.0671367 C364.138059,65.5230605 365.756826,64.1838432 365.756826,64.1838432 L370.630571,67.8732736 Z" id="Fill-35"></path>
                    <path d="M350.354057,264.093108 C350.354057,264.093108 337.7393,261.192695 330.095598,255.111105 C322.453425,249.046355 315.638996,235.86973 315.638996,235.86973 C315.638996,235.86973 358.49563,212.152662 362.821319,199.691266 C367.148844,187.241199 364.127655,164.520431 359.388247,153.317422 C354.648533,142.10339 343.277688,127.633781 343.277688,127.633781 C343.277688,127.633781 364.021777,139.836457 378.331496,140.537602 C392.707313,141.248544 422.229772,134.62992 432.166065,127.633781 L438.159176,135.400567 C427.946866,141.60769 392.801868,147.314213 380.714358,146.485392 C368.623483,145.654735 354.520317,137.392248 354.520317,137.392248 C354.520317,137.392248 362.269592,147.501593 365.354124,157.2769 C368.438656,167.039041 373.772632,193.981375 368.810146,204.326783 C362.222773,218.055139 320.464697,237.294064 320.464697,237.294064 C320.464697,237.294064 325.95443,246.185745 333.121071,252.204568 C340.287711,258.225229 350.354057,264.094944 350.354057,264.093108" id="Fill-36"></path>
                </g>
            </g>
        </g>
    </g>
</svg>