<svg width="24" height="24" viewBox="0 0 24 24" xmlns="http://www.w3.org/2000/svg"><g fill="none" fill-rule="evenodd"><path d="M2 2h20v20H2z"/><path d="M21.8 7.973s-.196-1.388-.795-2c-.76-.802-1.613-.806-2.004-.852-2.799-.204-6.997-.204-6.997-.204h-.008s-4.199 0-6.997.204c-.391.046-1.243.05-2.005.852-.599.612-.794 2-.794 2s-.2 1.63-.2 3.26v1.528c0 1.63.2 3.26.2 3.26s.195 1.387.794 1.999c.762.802 1.761.777 2.206.86 1.6.155 6.8.203 6.8.203s4.203-.006 7.001-.21c.39-.047 1.243-.05 2.004-.853.6-.612.795-2 .795-2s.2-1.63.2-3.26v-1.528c0-1.63-.2-3.26-.2-3.26zm-11.865 6.64v-5.66l5.403 2.84-5.403 2.82z" fill="#fff"/></g></svg>